<mxfile host="app.diagrams.net" agent="Mozilla/5.0 (Windows NT 10.0; Win64; x64) AppleWebKit/537.36 (KHTML, like Gecko) Chrome/130.0.0.0 Safari/537.36" version="24.8.4">
  <diagram name="Page-1" id="BJuyMFWDLPT35huf4qm2">
    <mxGraphModel dx="1690" dy="1102" grid="0" gridSize="10" guides="1" tooltips="1" connect="1" arrows="1" fold="1" page="0" pageScale="1" pageWidth="827" pageHeight="1169" math="0" shadow="0">
      <root>
        <mxCell id="0" />
        <mxCell id="1" parent="0" />
        <mxCell id="kSNvJyyvDM7-cWvT9wNF-85" value="" style="rounded=1;whiteSpace=wrap;html=1;fillColor=#d5e8d4;dashed=1;dashPattern=1 1;arcSize=12;strokeColor=none;" parent="1" vertex="1">
          <mxGeometry x="59" y="-87" width="402" height="85" as="geometry" />
        </mxCell>
        <mxCell id="kSNvJyyvDM7-cWvT9wNF-70" value="" style="rounded=1;whiteSpace=wrap;html=1;fillColor=#dae8fc;dashed=1;dashPattern=1 1;arcSize=12;strokeColor=none;" parent="1" vertex="1">
          <mxGeometry x="56" y="-246" width="405" height="93" as="geometry" />
        </mxCell>
        <mxCell id="kSNvJyyvDM7-cWvT9wNF-69" value="&lt;h1 style=&quot;margin-top: 0px;&quot;&gt;S3 structure&lt;/h1&gt;&lt;p style=&quot;line-height: 0%;&quot;&gt;&lt;font style=&quot;background-color: rgb(20, 83, 255);&quot; color=&quot;#f5f5f5&quot;&gt;/&lt;/font&gt;&lt;font style=&quot;background-color: rgb(20, 83, 255);&quot; color=&quot;#f5f5f5&quot;&gt;blue&lt;/font&gt;&lt;/p&gt;&lt;p style=&quot;line-height: 0%;&quot;&gt;&lt;span style=&quot;white-space: pre;&quot;&gt;&#x9;&lt;/span&gt;docLinks.json&lt;br&gt;&lt;/p&gt;&lt;p style=&quot;line-height: 0%;&quot;&gt;&lt;span style=&quot;white-space: pre;&quot;&gt;&#x9;&lt;/span&gt;/projects&lt;br&gt;&lt;/p&gt;&lt;p style=&quot;line-height: 0%;&quot;&gt;&lt;span style=&quot;white-space: pre;&quot;&gt;&#x9;&lt;/span&gt;&lt;span style=&quot;white-space: pre;&quot;&gt;&#x9;&lt;/span&gt;JavaProject-1.0.0.zip&lt;br&gt;&lt;/p&gt;&lt;p style=&quot;line-height: 0%;&quot;&gt;&lt;span style=&quot;white-space: pre;&quot;&gt;&#x9;&lt;/span&gt;&lt;span style=&quot;white-space: pre;&quot;&gt;&#x9;&lt;/span&gt;/JavaProject-1.0.0&lt;br&gt;&lt;/p&gt;&lt;p style=&quot;line-height: 0%;&quot;&gt;&lt;span style=&quot;white-space: pre;&quot;&gt;&#x9;&lt;/span&gt;&lt;span style=&quot;white-space: pre;&quot;&gt;&#x9;&lt;/span&gt;&lt;span style=&quot;white-space: pre;&quot;&gt;&#x9;&lt;/span&gt;/docs&lt;/p&gt;&lt;p style=&quot;line-height: 0%;&quot;&gt;&lt;span style=&quot;white-space: pre;&quot;&gt;&#x9;&lt;/span&gt;&lt;span style=&quot;white-space: pre;&quot;&gt;&#x9;&lt;/span&gt;&lt;span style=&quot;white-space: pre;&quot;&gt;&#x9;&lt;/span&gt;&lt;span style=&quot;white-space: pre;&quot;&gt;&#x9;&lt;/span&gt;index.html&lt;br&gt;&lt;/p&gt;&lt;p style=&quot;line-height: 0%;&quot;&gt;&lt;span style=&quot;white-space: pre;&quot;&gt;&#x9;&lt;span style=&quot;white-space: pre;&quot;&gt;&#x9;&lt;/span&gt;&lt;span style=&quot;white-space: pre;&quot;&gt;&#x9;&lt;/span&gt;&lt;span style=&quot;white-space: pre;&quot;&gt;&#x9;&lt;/span&gt;...&lt;/span&gt;&lt;span style=&quot;white-space: pre;&quot;&gt;&#x9;&lt;/span&gt;&lt;span style=&quot;white-space: pre;&quot;&gt;&#x9;&lt;/span&gt;&lt;/p&gt;&lt;p style=&quot;line-height: 0%;&quot;&gt;&lt;span style=&quot;white-space: pre;&quot;&gt;&#x9;&lt;/span&gt;&lt;span style=&quot;white-space: pre;&quot;&gt;&#x9;&lt;/span&gt;&lt;span style=&quot;white-space: pre;&quot;&gt;&#x9;&lt;/span&gt;README.md&lt;/p&gt;&lt;p style=&quot;line-height: 0%;&quot;&gt;&lt;span style=&quot;white-space: pre;&quot;&gt;&#x9;&lt;/span&gt;/projectHub&lt;br&gt;&lt;/p&gt;&lt;p style=&quot;line-height: 0%;&quot;&gt;&lt;span style=&quot;white-space: pre;&quot;&gt;&#x9;&lt;span style=&quot;white-space: pre;&quot;&gt;&#x9;&lt;/span&gt;index.html&lt;/span&gt;&lt;br&gt;&lt;/p&gt;&lt;p style=&quot;line-height: 0%;&quot;&gt;&lt;span style=&quot;white-space: pre;&quot;&gt;&#x9;&lt;/span&gt;&lt;span style=&quot;white-space: pre;&quot;&gt;&#x9;&lt;/span&gt;...&lt;br&gt;&lt;/p&gt;&lt;p style=&quot;line-height: 0%;&quot;&gt;&lt;font style=&quot;background-color: rgb(14, 179, 20);&quot; color=&quot;#ffffff&quot;&gt;&lt;br&gt;&lt;/font&gt;&lt;/p&gt;&lt;p style=&quot;line-height: 0%;&quot;&gt;&lt;font style=&quot;background-color: rgb(14, 179, 20);&quot; color=&quot;#ffffff&quot;&gt;/green&lt;/font&gt;&lt;/p&gt;&lt;p style=&quot;line-height: 0%;&quot;&gt;&lt;span style=&quot;white-space: pre;&quot;&gt;&#x9;&lt;/span&gt;docLinks.json&lt;br&gt;&lt;/p&gt;&lt;p style=&quot;line-height: 0%;&quot;&gt;&lt;span style=&quot;white-space: pre;&quot;&gt;&#x9;&lt;/span&gt;/projects&lt;br&gt;&lt;/p&gt;&lt;p style=&quot;line-height: 0%;&quot;&gt;&lt;span style=&quot;white-space: pre;&quot;&gt;&#x9;&lt;/span&gt;&lt;span style=&quot;white-space: pre;&quot;&gt;&#x9;&lt;/span&gt;TestJavaProject-1.0.0.zip&lt;br&gt;&lt;/p&gt;&lt;p style=&quot;line-height: 0%;&quot;&gt;&lt;span style=&quot;white-space: pre;&quot;&gt;&#x9;&lt;/span&gt;&lt;span style=&quot;white-space: pre;&quot;&gt;&#x9;&lt;/span&gt;/&lt;span style=&quot;background-color: initial;&quot;&gt;Test&lt;/span&gt;&lt;span style=&quot;background-color: initial;&quot;&gt;JavaProject-1.0.0&lt;/span&gt;&lt;/p&gt;&lt;p style=&quot;line-height: 0%;&quot;&gt;&lt;span style=&quot;white-space: pre;&quot;&gt;&#x9;&lt;/span&gt;&lt;span style=&quot;white-space: pre;&quot;&gt;&#x9;&lt;/span&gt;&lt;span style=&quot;white-space: pre;&quot;&gt;&#x9;&lt;/span&gt;/docs&lt;/p&gt;&lt;p style=&quot;line-height: 0%;&quot;&gt;&lt;span style=&quot;white-space: pre;&quot;&gt;&#x9;&lt;/span&gt;&lt;span style=&quot;white-space: pre;&quot;&gt;&#x9;&lt;/span&gt;&lt;span style=&quot;white-space: pre;&quot;&gt;&#x9;&lt;/span&gt;&lt;span style=&quot;white-space: pre;&quot;&gt;&#x9;&lt;/span&gt;index.html&lt;br&gt;&lt;/p&gt;&lt;p style=&quot;line-height: 0%;&quot;&gt;&lt;span style=&quot;white-space: pre;&quot;&gt;&#x9;&lt;/span&gt;&lt;span style=&quot;white-space: pre;&quot;&gt;&#x9;&lt;/span&gt;&lt;span style=&quot;white-space: pre;&quot;&gt;&#x9;&lt;/span&gt;&lt;span style=&quot;white-space: pre;&quot;&gt;&#x9;&lt;/span&gt;...&lt;br&gt;&lt;/p&gt;&lt;p style=&quot;line-height: 0%;&quot;&gt;&lt;span style=&quot;white-space: pre;&quot;&gt;&#x9;&lt;/span&gt;&lt;span style=&quot;white-space: pre;&quot;&gt;&#x9;&lt;/span&gt;&lt;span style=&quot;white-space: pre;&quot;&gt;&#x9;&lt;/span&gt;README.md&lt;/p&gt;&lt;p style=&quot;line-height: 0%;&quot;&gt;&lt;span style=&quot;white-space: pre;&quot;&gt;&#x9;&lt;/span&gt;/projectHub&lt;br&gt;&lt;/p&gt;&lt;p style=&quot;line-height: 0%;&quot;&gt;&lt;span style=&quot;white-space: pre;&quot;&gt;&#x9;&lt;span style=&quot;white-space: pre;&quot;&gt;&#x9;&lt;/span&gt;index.html&lt;/span&gt;&lt;br&gt;&lt;/p&gt;&lt;p style=&quot;line-height: 0%;&quot;&gt;&lt;span style=&quot;white-space: pre;&quot;&gt;&#x9;&lt;/span&gt;&lt;span style=&quot;white-space: pre;&quot;&gt;&#x9;&lt;/span&gt;...&lt;/p&gt;" style="text;html=1;whiteSpace=wrap;overflow=hidden;rounded=0;spacing=3;fillColor=#f5f5f5;fontColor=#333333;strokeColor=#666666;perimeterSpacing=0;spacingLeft=2;strokeWidth=0;" parent="1" vertex="1">
          <mxGeometry x="49" y="-286" width="204" height="500" as="geometry" />
        </mxCell>
        <mxCell id="kSNvJyyvDM7-cWvT9wNF-11" value="" style="group" parent="1" vertex="1" connectable="0">
          <mxGeometry x="-231.49" y="-24.5" width="152.99" height="35.5" as="geometry" />
        </mxCell>
        <mxCell id="kSNvJyyvDM7-cWvT9wNF-1" value="" style="rounded=1;whiteSpace=wrap;html=1;strokeColor=none;fillColor=#dae8fc;" parent="kSNvJyyvDM7-cWvT9wNF-11" vertex="1">
          <mxGeometry x="28" y="1.5" width="124.99" height="34" as="geometry" />
        </mxCell>
        <mxCell id="kSNvJyyvDM7-cWvT9wNF-2" value="" style="sketch=0;outlineConnect=0;fontColor=#232F3E;gradientColor=none;fillColor=#7AA116;strokeColor=none;dashed=0;verticalLabelPosition=bottom;verticalAlign=top;align=center;html=1;fontSize=12;fontStyle=0;aspect=fixed;pointerEvents=1;shape=mxgraph.aws4.iot_analytics_pipeline;" parent="kSNvJyyvDM7-cWvT9wNF-11" vertex="1">
          <mxGeometry x="34.49000000000001" y="9" width="35.29" height="19" as="geometry" />
        </mxCell>
        <mxCell id="kSNvJyyvDM7-cWvT9wNF-3" value="" style="sketch=0;outlineConnect=0;fontColor=#232F3E;gradientColor=none;fillColor=#7AA116;strokeColor=none;dashed=0;verticalLabelPosition=bottom;verticalAlign=top;align=center;html=1;fontSize=12;fontStyle=0;aspect=fixed;pointerEvents=1;shape=mxgraph.aws4.iot_analytics_pipeline;" parent="kSNvJyyvDM7-cWvT9wNF-11" vertex="1">
          <mxGeometry x="72.85000000000002" y="9" width="35.29" height="19" as="geometry" />
        </mxCell>
        <mxCell id="kSNvJyyvDM7-cWvT9wNF-4" value="" style="sketch=0;outlineConnect=0;fontColor=#232F3E;gradientColor=none;fillColor=#7AA116;strokeColor=none;dashed=0;verticalLabelPosition=bottom;verticalAlign=top;align=center;html=1;fontSize=12;fontStyle=0;aspect=fixed;pointerEvents=1;shape=mxgraph.aws4.iot_analytics_pipeline;" parent="kSNvJyyvDM7-cWvT9wNF-11" vertex="1">
          <mxGeometry x="111.49000000000001" y="9" width="35.29" height="19" as="geometry" />
        </mxCell>
        <mxCell id="kSNvJyyvDM7-cWvT9wNF-6" value="" style="shape=image;verticalLabelPosition=bottom;labelBackgroundColor=default;verticalAlign=top;aspect=fixed;imageAspect=0;image=https://cdn-icons-png.flaticon.com/512/226/226777.png;" parent="kSNvJyyvDM7-cWvT9wNF-11" vertex="1">
          <mxGeometry width="28" height="28" as="geometry" />
        </mxCell>
        <mxCell id="kSNvJyyvDM7-cWvT9wNF-30" value="" style="group" parent="1" vertex="1" connectable="0">
          <mxGeometry x="-225.49" y="23" width="146.99" height="34" as="geometry" />
        </mxCell>
        <mxCell id="kSNvJyyvDM7-cWvT9wNF-18" value="" style="group" parent="kSNvJyyvDM7-cWvT9wNF-30" vertex="1" connectable="0">
          <mxGeometry x="22" width="124.99" height="34" as="geometry" />
        </mxCell>
        <mxCell id="kSNvJyyvDM7-cWvT9wNF-19" value="" style="rounded=1;whiteSpace=wrap;html=1;strokeColor=none;fillColor=#dae8fc;" parent="kSNvJyyvDM7-cWvT9wNF-18" vertex="1">
          <mxGeometry width="124.99" height="34" as="geometry" />
        </mxCell>
        <mxCell id="kSNvJyyvDM7-cWvT9wNF-20" value="" style="sketch=0;outlineConnect=0;fontColor=#232F3E;gradientColor=none;fillColor=#7AA116;strokeColor=none;dashed=0;verticalLabelPosition=bottom;verticalAlign=top;align=center;html=1;fontSize=12;fontStyle=0;aspect=fixed;pointerEvents=1;shape=mxgraph.aws4.iot_analytics_pipeline;" parent="kSNvJyyvDM7-cWvT9wNF-18" vertex="1">
          <mxGeometry x="6.490000000000009" y="7.5" width="35.29" height="19" as="geometry" />
        </mxCell>
        <mxCell id="kSNvJyyvDM7-cWvT9wNF-21" value="" style="sketch=0;outlineConnect=0;fontColor=#232F3E;gradientColor=none;fillColor=#7AA116;strokeColor=none;dashed=0;verticalLabelPosition=bottom;verticalAlign=top;align=center;html=1;fontSize=12;fontStyle=0;aspect=fixed;pointerEvents=1;shape=mxgraph.aws4.iot_analytics_pipeline;" parent="kSNvJyyvDM7-cWvT9wNF-18" vertex="1">
          <mxGeometry x="44.85000000000002" y="7.5" width="35.29" height="19" as="geometry" />
        </mxCell>
        <mxCell id="kSNvJyyvDM7-cWvT9wNF-22" value="" style="sketch=0;outlineConnect=0;fontColor=#232F3E;gradientColor=none;fillColor=#7AA116;strokeColor=none;dashed=0;verticalLabelPosition=bottom;verticalAlign=top;align=center;html=1;fontSize=12;fontStyle=0;aspect=fixed;pointerEvents=1;shape=mxgraph.aws4.iot_analytics_pipeline;" parent="kSNvJyyvDM7-cWvT9wNF-18" vertex="1">
          <mxGeometry x="83.49000000000001" y="7.5" width="35.29" height="19" as="geometry" />
        </mxCell>
        <mxCell id="kSNvJyyvDM7-cWvT9wNF-29" value="" style="shape=image;verticalLabelPosition=bottom;labelBackgroundColor=default;verticalAlign=top;aspect=fixed;imageAspect=0;image=https://static-00.iconduck.com/assets.00/golang-icon-1594x2048-0xixr8zr.png;" parent="kSNvJyyvDM7-cWvT9wNF-30" vertex="1">
          <mxGeometry y="2.8699999999999903" width="22" height="28.26" as="geometry" />
        </mxCell>
        <mxCell id="kSNvJyyvDM7-cWvT9wNF-37" value="" style="group" parent="1" vertex="1" connectable="0">
          <mxGeometry x="-225.49" y="70" width="147.5" height="34" as="geometry" />
        </mxCell>
        <mxCell id="kSNvJyyvDM7-cWvT9wNF-12" value="" style="group" parent="kSNvJyyvDM7-cWvT9wNF-37" vertex="1" connectable="0">
          <mxGeometry x="22.50999999999999" width="124.99" height="34" as="geometry" />
        </mxCell>
        <mxCell id="kSNvJyyvDM7-cWvT9wNF-7" value="" style="rounded=1;whiteSpace=wrap;html=1;strokeColor=none;fillColor=#dae8fc;" parent="kSNvJyyvDM7-cWvT9wNF-12" vertex="1">
          <mxGeometry width="124.99" height="34" as="geometry" />
        </mxCell>
        <mxCell id="kSNvJyyvDM7-cWvT9wNF-8" value="" style="sketch=0;outlineConnect=0;fontColor=#232F3E;gradientColor=none;fillColor=#7AA116;strokeColor=none;dashed=0;verticalLabelPosition=bottom;verticalAlign=top;align=center;html=1;fontSize=12;fontStyle=0;aspect=fixed;pointerEvents=1;shape=mxgraph.aws4.iot_analytics_pipeline;" parent="kSNvJyyvDM7-cWvT9wNF-12" vertex="1">
          <mxGeometry x="6.490000000000009" y="7.5" width="35.29" height="19" as="geometry" />
        </mxCell>
        <mxCell id="kSNvJyyvDM7-cWvT9wNF-9" value="" style="sketch=0;outlineConnect=0;fontColor=#232F3E;gradientColor=none;fillColor=#7AA116;strokeColor=none;dashed=0;verticalLabelPosition=bottom;verticalAlign=top;align=center;html=1;fontSize=12;fontStyle=0;aspect=fixed;pointerEvents=1;shape=mxgraph.aws4.iot_analytics_pipeline;" parent="kSNvJyyvDM7-cWvT9wNF-12" vertex="1">
          <mxGeometry x="44.85000000000002" y="7.5" width="35.29" height="19" as="geometry" />
        </mxCell>
        <mxCell id="kSNvJyyvDM7-cWvT9wNF-10" value="" style="sketch=0;outlineConnect=0;fontColor=#232F3E;gradientColor=none;fillColor=#7AA116;strokeColor=none;dashed=0;verticalLabelPosition=bottom;verticalAlign=top;align=center;html=1;fontSize=12;fontStyle=0;aspect=fixed;pointerEvents=1;shape=mxgraph.aws4.iot_analytics_pipeline;" parent="kSNvJyyvDM7-cWvT9wNF-12" vertex="1">
          <mxGeometry x="83.49000000000001" y="7.5" width="35.29" height="19" as="geometry" />
        </mxCell>
        <mxCell id="kSNvJyyvDM7-cWvT9wNF-15" value="" style="shape=image;verticalLabelPosition=bottom;labelBackgroundColor=default;verticalAlign=top;aspect=fixed;imageAspect=0;image=https://static-00.iconduck.com/assets.00/javascript-js-icon-2048x2048-nyxvtvk0.png;" parent="kSNvJyyvDM7-cWvT9wNF-37" vertex="1">
          <mxGeometry y="6.810000000000002" width="20.37" height="20.37" as="geometry" />
        </mxCell>
        <mxCell id="kSNvJyyvDM7-cWvT9wNF-39" value="" style="group" parent="1" vertex="1" connectable="0">
          <mxGeometry x="-228.5" y="119" width="151.48999999999995" height="34" as="geometry" />
        </mxCell>
        <mxCell id="kSNvJyyvDM7-cWvT9wNF-31" value="" style="shape=image;verticalLabelPosition=bottom;labelBackgroundColor=default;verticalAlign=top;aspect=fixed;imageAspect=0;image=https://cdn-icons-png.flaticon.com/512/5968/5968350.png;" parent="kSNvJyyvDM7-cWvT9wNF-39" vertex="1">
          <mxGeometry y="4.3799999999999955" width="25.25" height="25.25" as="geometry" />
        </mxCell>
        <mxCell id="kSNvJyyvDM7-cWvT9wNF-32" value="" style="group" parent="kSNvJyyvDM7-cWvT9wNF-39" vertex="1" connectable="0">
          <mxGeometry x="26.49999999999997" width="124.99" height="34" as="geometry" />
        </mxCell>
        <mxCell id="kSNvJyyvDM7-cWvT9wNF-33" value="" style="rounded=1;whiteSpace=wrap;html=1;strokeColor=none;fillColor=#dae8fc;" parent="kSNvJyyvDM7-cWvT9wNF-32" vertex="1">
          <mxGeometry width="124.99" height="34" as="geometry" />
        </mxCell>
        <mxCell id="kSNvJyyvDM7-cWvT9wNF-34" value="" style="sketch=0;outlineConnect=0;fontColor=#232F3E;gradientColor=none;fillColor=#7AA116;strokeColor=none;dashed=0;verticalLabelPosition=bottom;verticalAlign=top;align=center;html=1;fontSize=12;fontStyle=0;aspect=fixed;pointerEvents=1;shape=mxgraph.aws4.iot_analytics_pipeline;" parent="kSNvJyyvDM7-cWvT9wNF-32" vertex="1">
          <mxGeometry x="6.490000000000009" y="7.5" width="35.29" height="19" as="geometry" />
        </mxCell>
        <mxCell id="kSNvJyyvDM7-cWvT9wNF-35" value="" style="sketch=0;outlineConnect=0;fontColor=#232F3E;gradientColor=none;fillColor=#7AA116;strokeColor=none;dashed=0;verticalLabelPosition=bottom;verticalAlign=top;align=center;html=1;fontSize=12;fontStyle=0;aspect=fixed;pointerEvents=1;shape=mxgraph.aws4.iot_analytics_pipeline;" parent="kSNvJyyvDM7-cWvT9wNF-32" vertex="1">
          <mxGeometry x="44.85000000000002" y="7.5" width="35.29" height="19" as="geometry" />
        </mxCell>
        <mxCell id="kSNvJyyvDM7-cWvT9wNF-36" value="" style="sketch=0;outlineConnect=0;fontColor=#232F3E;gradientColor=none;fillColor=#7AA116;strokeColor=none;dashed=0;verticalLabelPosition=bottom;verticalAlign=top;align=center;html=1;fontSize=12;fontStyle=0;aspect=fixed;pointerEvents=1;shape=mxgraph.aws4.iot_analytics_pipeline;" parent="kSNvJyyvDM7-cWvT9wNF-32" vertex="1">
          <mxGeometry x="83.49000000000001" y="7.5" width="35.29" height="19" as="geometry" />
        </mxCell>
        <mxCell id="kSNvJyyvDM7-cWvT9wNF-40" value="" style="outlineConnect=0;dashed=0;verticalLabelPosition=bottom;verticalAlign=top;align=center;html=1;shape=mxgraph.aws3.s3;fillColor=#E05243;gradientColor=none;" parent="1" vertex="1">
          <mxGeometry x="86" y="100" width="76.5" height="93" as="geometry" />
        </mxCell>
        <mxCell id="kSNvJyyvDM7-cWvT9wNF-44" value="GolangProject-1.1.0.zip" style="shape=image;html=1;verticalAlign=top;verticalLabelPosition=bottom;labelBackgroundColor=#ffffff;imageAspect=0;aspect=fixed;image=https://cdn1.iconfinder.com/data/icons/hawcons/32/699233-icon-124-document-file-zip-128.png;fontSize=5;" parent="1" vertex="1">
          <mxGeometry x="-32" y="14" width="14" height="14" as="geometry" />
        </mxCell>
        <mxCell id="kSNvJyyvDM7-cWvT9wNF-45" value="JavaProject-1.0.0.zip" style="shape=image;html=1;verticalAlign=top;verticalLabelPosition=bottom;labelBackgroundColor=#ffffff;imageAspect=0;aspect=fixed;image=https://cdn1.iconfinder.com/data/icons/hawcons/32/699233-icon-124-document-file-zip-128.png;fontSize=5;" parent="1" vertex="1">
          <mxGeometry x="-18" y="-27" width="14" height="14" as="geometry" />
        </mxCell>
        <mxCell id="kSNvJyyvDM7-cWvT9wNF-46" value="PyProject-5.1.1.zip" style="shape=image;html=1;verticalAlign=top;verticalLabelPosition=bottom;labelBackgroundColor=#ffffff;imageAspect=0;aspect=fixed;image=https://cdn1.iconfinder.com/data/icons/hawcons/32/699233-icon-124-document-file-zip-128.png;fontSize=5;" parent="1" vertex="1">
          <mxGeometry x="-50" y="100" width="14" height="14" as="geometry" />
        </mxCell>
        <mxCell id="kSNvJyyvDM7-cWvT9wNF-47" value="JSProject-0.2.0.zip" style="shape=image;html=1;verticalAlign=top;verticalLabelPosition=bottom;labelBackgroundColor=#ffffff;imageAspect=0;aspect=fixed;image=https://cdn1.iconfinder.com/data/icons/hawcons/32/699233-icon-124-document-file-zip-128.png;fontSize=5;" parent="1" vertex="1">
          <mxGeometry x="-50" y="56" width="14" height="14" as="geometry" />
        </mxCell>
        <mxCell id="kSNvJyyvDM7-cWvT9wNF-48" style="edgeStyle=none;curved=1;rounded=0;orthogonalLoop=1;jettySize=auto;html=1;fontSize=12;startSize=8;endSize=8;" parent="1" source="kSNvJyyvDM7-cWvT9wNF-4" target="kSNvJyyvDM7-cWvT9wNF-40" edge="1">
          <mxGeometry relative="1" as="geometry">
            <Array as="points">
              <mxPoint x="9" y="-2" />
            </Array>
          </mxGeometry>
        </mxCell>
        <mxCell id="kSNvJyyvDM7-cWvT9wNF-49" style="edgeStyle=none;curved=1;rounded=0;orthogonalLoop=1;jettySize=auto;html=1;fontSize=12;startSize=8;endSize=8;" parent="1" source="kSNvJyyvDM7-cWvT9wNF-22" target="kSNvJyyvDM7-cWvT9wNF-40" edge="1">
          <mxGeometry relative="1" as="geometry">
            <Array as="points">
              <mxPoint y="42" />
            </Array>
          </mxGeometry>
        </mxCell>
        <mxCell id="kSNvJyyvDM7-cWvT9wNF-50" style="edgeStyle=none;curved=1;rounded=0;orthogonalLoop=1;jettySize=auto;html=1;fontSize=12;startSize=8;endSize=8;" parent="1" source="kSNvJyyvDM7-cWvT9wNF-10" target="kSNvJyyvDM7-cWvT9wNF-40" edge="1">
          <mxGeometry relative="1" as="geometry">
            <Array as="points">
              <mxPoint x="-4" y="84" />
            </Array>
          </mxGeometry>
        </mxCell>
        <mxCell id="kSNvJyyvDM7-cWvT9wNF-51" style="edgeStyle=none;curved=1;rounded=0;orthogonalLoop=1;jettySize=auto;html=1;entryX=0;entryY=0.79;entryDx=0;entryDy=0;entryPerimeter=0;fontSize=12;startSize=8;endSize=8;" parent="1" source="kSNvJyyvDM7-cWvT9wNF-36" target="kSNvJyyvDM7-cWvT9wNF-40" edge="1">
          <mxGeometry relative="1" as="geometry">
            <Array as="points">
              <mxPoint x="4" y="130" />
            </Array>
          </mxGeometry>
        </mxCell>
        <mxCell id="kSNvJyyvDM7-cWvT9wNF-59" value="" style="outlineConnect=0;dashed=0;verticalLabelPosition=bottom;verticalAlign=top;align=center;html=1;shape=mxgraph.aws3.lambda_function;fillColor=#5294CF;gradientColor=none;" parent="1" vertex="1">
          <mxGeometry x="369" y="-222" width="63" height="66.15" as="geometry" />
        </mxCell>
        <mxCell id="kSNvJyyvDM7-cWvT9wNF-64" value="&lt;div style=&quot;background-color: rgb(31, 31, 31); line-height: 19px;&quot;&gt;&lt;div style=&quot;font-family: Consolas, &amp;quot;Courier New&amp;quot;, monospace; font-size: 14px; font-weight: normal; white-space: pre;&quot;&gt;&lt;font color=&quot;#71cc21&quot;&gt;/* docLinks.json example */&lt;/font&gt;&lt;/div&gt;&lt;div style=&quot;color: rgb(204, 204, 204); font-family: Consolas, &amp;quot;Courier New&amp;quot;, monospace; font-size: 14px; font-weight: normal; white-space: pre;&quot;&gt;&lt;span style=&quot;color: #cccccc;&quot;&gt;[{&lt;/span&gt;&lt;/div&gt;&lt;div style=&quot;color: rgb(204, 204, 204); font-family: Consolas, &amp;quot;Courier New&amp;quot;, monospace; font-size: 14px; font-weight: normal; white-space: pre;&quot;&gt;&lt;span style=&quot;color: #cccccc;&quot;&gt;&amp;nbsp; &amp;nbsp; &lt;/span&gt;&lt;span style=&quot;color: #ce9178;&quot;&gt;&quot;name&quot;&lt;/span&gt;&lt;span style=&quot;color: #cccccc;&quot;&gt;: &lt;/span&gt;&lt;span style=&quot;color: #9cdcfe;&quot;&gt;projectname&lt;/span&gt;&lt;span style=&quot;color: #cccccc;&quot;&gt;,&lt;/span&gt;&lt;/div&gt;&lt;div style=&quot;color: rgb(204, 204, 204); font-family: Consolas, &amp;quot;Courier New&amp;quot;, monospace; font-size: 14px; font-weight: normal; white-space: pre;&quot;&gt;&lt;span style=&quot;color: #cccccc;&quot;&gt;&amp;nbsp; &amp;nbsp; &lt;/span&gt;&lt;span style=&quot;color: #ce9178;&quot;&gt;&quot;version&quot;&lt;/span&gt;&lt;span style=&quot;color: #cccccc;&quot;&gt;: &lt;/span&gt;&lt;span style=&quot;color: #9cdcfe;&quot;&gt;projectversion&lt;/span&gt;&lt;span style=&quot;color: #cccccc;&quot;&gt;,&lt;/span&gt;&lt;/div&gt;&lt;div style=&quot;&quot;&gt;&lt;span style=&quot;color: rgb(204, 204, 204); font-family: Consolas, &amp;quot;Courier New&amp;quot;, monospace; font-size: 14px; font-weight: normal; white-space: pre;&quot;&gt;&amp;nbsp; &amp;nbsp; &lt;/span&gt;&lt;span style=&quot;color: rgb(206, 145, 120); font-family: Consolas, &amp;quot;Courier New&amp;quot;, monospace; font-size: 14px; font-weight: normal; white-space: pre;&quot;&gt;&quot;urlIndexHtml&quot;&lt;/span&gt;&lt;span style=&quot;color: rgb(204, 204, 204); font-family: Consolas, &amp;quot;Courier New&amp;quot;, monospace; font-size: 14px; font-weight: normal; white-space: pre;&quot;&gt;: &quot;&lt;/span&gt;&lt;font face=&quot;Consolas, Courier New, monospace&quot; color=&quot;#9cdcfe&quot;&gt;&lt;span style=&quot;font-size: 14px; white-space: pre;&quot;&gt;s3://projectHub/blue/project1-1.0.0/docs/index.html&quot;,&lt;/span&gt;&lt;/font&gt;&lt;/div&gt;&lt;div style=&quot;&quot;&gt;&lt;span style=&quot;color: rgb(206, 145, 120); font-family: Consolas, &amp;quot;Courier New&amp;quot;, monospace; font-size: 14px; white-space: pre;&quot;&gt;    &quot;urlReadme&quot;&lt;/span&gt;&lt;span style=&quot;color: rgb(204, 204, 204); font-family: Consolas, &amp;quot;Courier New&amp;quot;, monospace; font-size: 14px; white-space: pre;&quot;&gt;: &quot;&lt;/span&gt;&lt;font face=&quot;Consolas, Courier New, monospace&quot; color=&quot;#9cdcfe&quot;&gt;&lt;span style=&quot;font-size: 14px; white-space: pre;&quot;&gt;s3://projectHub/blue/project1-1.0.0/README.md&quot;&lt;/span&gt;&lt;/font&gt;&lt;font face=&quot;Consolas, Courier New, monospace&quot; color=&quot;#9cdcfe&quot;&gt;&lt;span style=&quot;font-size: 14px; white-space: pre;&quot;&gt;&lt;/span&gt;&lt;/font&gt;&lt;/div&gt;&lt;div style=&quot;color: rgb(204, 204, 204); font-family: Consolas, &amp;quot;Courier New&amp;quot;, monospace; font-size: 14px; font-weight: normal; white-space: pre;&quot;&gt;&lt;span style=&quot;color: #cccccc;&quot;&gt;}]&lt;/span&gt;&lt;/div&gt;&lt;/div&gt;" style="text;whiteSpace=wrap;html=1;" parent="1" vertex="1">
          <mxGeometry x="49" y="224" width="539" height="130" as="geometry" />
        </mxCell>
        <mxCell id="kSNvJyyvDM7-cWvT9wNF-72" value="" style="endArrow=classicThin;html=1;rounded=0;fontSize=12;startSize=8;endSize=8;curved=1;dashed=1;dashPattern=1 1;endFill=1;entryX=0;entryY=0.5;entryDx=0;entryDy=0;entryPerimeter=0;" parent="1" target="kSNvJyyvDM7-cWvT9wNF-59" edge="1">
          <mxGeometry width="50" height="50" relative="1" as="geometry">
            <mxPoint x="223" y="-197" as="sourcePoint" />
            <mxPoint x="379" y="-201" as="targetPoint" />
            <Array as="points">
              <mxPoint x="307" y="-216" />
            </Array>
          </mxGeometry>
        </mxCell>
        <mxCell id="kSNvJyyvDM7-cWvT9wNF-73" value="trigger on upload" style="edgeLabel;html=1;align=center;verticalAlign=middle;resizable=0;points=[];fontSize=8;textOpacity=70;" parent="kSNvJyyvDM7-cWvT9wNF-72" vertex="1" connectable="0">
          <mxGeometry x="-0.0962" y="-1" relative="1" as="geometry">
            <mxPoint x="16" y="-2" as="offset" />
          </mxGeometry>
        </mxCell>
        <mxCell id="kSNvJyyvDM7-cWvT9wNF-74" value="" style="endArrow=classicThin;html=1;rounded=0;fontSize=12;startSize=8;endSize=8;curved=1;dashed=1;dashPattern=1 1;endFill=1;" parent="1" source="kSNvJyyvDM7-cWvT9wNF-59" edge="1">
          <mxGeometry width="50" height="50" relative="1" as="geometry">
            <mxPoint x="445" y="-193.93" as="sourcePoint" />
            <mxPoint x="207" y="-183.93" as="targetPoint" />
            <Array as="points">
              <mxPoint x="295" y="-149" />
            </Array>
          </mxGeometry>
        </mxCell>
        <mxCell id="kSNvJyyvDM7-cWvT9wNF-75" value="unpack to serve statically" style="edgeLabel;html=1;align=center;verticalAlign=middle;resizable=0;points=[];fontSize=8;textOpacity=70;" parent="kSNvJyyvDM7-cWvT9wNF-74" vertex="1" connectable="0">
          <mxGeometry x="-0.0962" y="-1" relative="1" as="geometry">
            <mxPoint x="9" y="-12" as="offset" />
          </mxGeometry>
        </mxCell>
        <mxCell id="kSNvJyyvDM7-cWvT9wNF-76" value="" style="endArrow=classicThin;html=1;rounded=0;fontSize=12;startSize=8;endSize=8;curved=1;dashed=1;dashPattern=1 1;endFill=1;" parent="1" edge="1">
          <mxGeometry width="50" height="50" relative="1" as="geometry">
            <mxPoint x="369" y="-179" as="sourcePoint" />
            <mxPoint x="161" y="-222" as="targetPoint" />
            <Array as="points">
              <mxPoint x="259" y="-203" />
            </Array>
          </mxGeometry>
        </mxCell>
        <mxCell id="kSNvJyyvDM7-cWvT9wNF-77" value="update docLinks" style="edgeLabel;html=1;align=center;verticalAlign=middle;resizable=0;points=[];fontSize=8;textOpacity=70;" parent="kSNvJyyvDM7-cWvT9wNF-76" vertex="1" connectable="0">
          <mxGeometry x="-0.0962" y="-1" relative="1" as="geometry">
            <mxPoint x="10" y="12" as="offset" />
          </mxGeometry>
        </mxCell>
        <mxCell id="kSNvJyyvDM7-cWvT9wNF-78" value="" style="outlineConnect=0;dashed=0;verticalLabelPosition=bottom;verticalAlign=top;align=center;html=1;shape=mxgraph.aws3.lambda_function;fillColor=#5294CF;gradientColor=none;" parent="1" vertex="1">
          <mxGeometry x="390" y="-69" width="63" height="66.15" as="geometry" />
        </mxCell>
        <mxCell id="kSNvJyyvDM7-cWvT9wNF-79" value="" style="endArrow=classicThin;html=1;rounded=0;fontSize=12;startSize=8;endSize=8;curved=1;dashed=1;dashPattern=1 1;endFill=1;entryX=0;entryY=0.5;entryDx=0;entryDy=0;entryPerimeter=0;" parent="1" target="kSNvJyyvDM7-cWvT9wNF-78" edge="1">
          <mxGeometry width="50" height="50" relative="1" as="geometry">
            <mxPoint x="244" y="-44" as="sourcePoint" />
            <mxPoint x="400" y="-48" as="targetPoint" />
            <Array as="points">
              <mxPoint x="328" y="-63" />
            </Array>
          </mxGeometry>
        </mxCell>
        <mxCell id="kSNvJyyvDM7-cWvT9wNF-80" value="trigger on upload" style="edgeLabel;html=1;align=center;verticalAlign=middle;resizable=0;points=[];fontSize=8;textOpacity=70;" parent="kSNvJyyvDM7-cWvT9wNF-79" vertex="1" connectable="0">
          <mxGeometry x="-0.0962" y="-1" relative="1" as="geometry">
            <mxPoint x="16" y="-2" as="offset" />
          </mxGeometry>
        </mxCell>
        <mxCell id="kSNvJyyvDM7-cWvT9wNF-81" value="" style="endArrow=classicThin;html=1;rounded=0;fontSize=12;startSize=8;endSize=8;curved=1;dashed=1;dashPattern=1 1;endFill=1;" parent="1" source="kSNvJyyvDM7-cWvT9wNF-78" edge="1">
          <mxGeometry width="50" height="50" relative="1" as="geometry">
            <mxPoint x="466" y="-40.93000000000001" as="sourcePoint" />
            <mxPoint x="228" y="-30.930000000000007" as="targetPoint" />
            <Array as="points">
              <mxPoint x="316" y="4" />
            </Array>
          </mxGeometry>
        </mxCell>
        <mxCell id="kSNvJyyvDM7-cWvT9wNF-82" value="unpack to serve statically" style="edgeLabel;html=1;align=center;verticalAlign=middle;resizable=0;points=[];fontSize=8;labelBackgroundColor=default;textOpacity=70;" parent="kSNvJyyvDM7-cWvT9wNF-81" vertex="1" connectable="0">
          <mxGeometry x="-0.0962" y="-1" relative="1" as="geometry">
            <mxPoint x="5" y="-12" as="offset" />
          </mxGeometry>
        </mxCell>
        <mxCell id="kSNvJyyvDM7-cWvT9wNF-83" value="" style="endArrow=classicThin;html=1;rounded=0;fontSize=12;startSize=8;endSize=8;curved=1;dashed=1;dashPattern=1 1;endFill=1;" parent="1" edge="1">
          <mxGeometry width="50" height="50" relative="1" as="geometry">
            <mxPoint x="390" y="-25" as="sourcePoint" />
            <mxPoint x="161.5" y="-66" as="targetPoint" />
            <Array as="points">
              <mxPoint x="259.5" y="-47" />
            </Array>
          </mxGeometry>
        </mxCell>
        <mxCell id="kSNvJyyvDM7-cWvT9wNF-84" value="update docLinks" style="edgeLabel;html=1;align=center;verticalAlign=middle;resizable=0;points=[];fontSize=8;textOpacity=70;" parent="kSNvJyyvDM7-cWvT9wNF-83" vertex="1" connectable="0">
          <mxGeometry x="-0.0962" y="-1" relative="1" as="geometry">
            <mxPoint x="10" y="12" as="offset" />
          </mxGeometry>
        </mxCell>
        <mxCell id="kSNvJyyvDM7-cWvT9wNF-107" value="" style="group" parent="1" vertex="1" connectable="0">
          <mxGeometry x="-249.51" y="-142" width="174.95" height="55" as="geometry" />
        </mxCell>
        <mxCell id="kSNvJyyvDM7-cWvT9wNF-100" value="" style="shape=image;verticalLabelPosition=bottom;labelBackgroundColor=default;verticalAlign=top;aspect=fixed;imageAspect=0;image=data:image/png,iVBORw0KGgoAAAANSUhEUgAAAggAAAHXCAYAAADZfKIEAAAAAXNSR0IArs4c6QAAAARnQU1BAACxjwv8YQUAAAAJcEhZcwAAJOgAACToAYJjBRwAAHW5SURBVHhe7d0HYFzXfSX8M70Ag97BLhZRLKJIqlC9d3e511Sn7G6yyaY4m91Nvt0km7qJ4yT2bmInrrEty0WyZEkUJTaxiRR7LygE0fv0+t3/xRsJRCFRBpjyzg8aDeYOCAxmBu+ed6slpYCIiIhoFKtxTURERPQOBgQiIiIahwGBiIiIxmFAICIionEYEIiIiGgcBgQiIiIahwGBiIiIxmFAICIionEYEIiIiGgcBgQiIiIahwGBiIiIxmFAICIionEYEIiIiGgcBgQiIiIahwGBiIiIxmFAICIionEYEIiIiGgcBgQiIiIahwGBiIiIxmFAICIionEYEIiIiGgcBgQiIiIahwGBiIiIxmFAICIionEYEIiIiGgcBgQiIiIahwGBiIiIxmFAICIionEYEIiIiGgcBgQiIiIahwGBiIiIxmFAICIionEYEIiIiGgcBgQiIiIahwGBiIiIxmFAICIionEYEIiIiGgcBgQiIiIahwGBiIiIxrGkFONzIsSScSRSCVgtVjitDqM0M5KppP7+SfXhtrpgsViMe2ZP3sYJ9RFNxOCyOWGz2Ix7iIhoJhgQSOuN9GEwNqQuAwgnwnBYHCh3lqPUWYpyRxls1plXuP54YOR7RwcwHBvWAaTMWYYSRwkqXZXw2NzGV05fNBlT39OPgWi/voQSEfgcxSh2+FDprFA/p9T4SiIimg4GhBwnZ9yRZERXqnIGLmf2XpsHdot91mfg8j2D8ZCqwIfxVt8RnBk6jY5guwoIQTisTtR46nBT6WqsL1uDek893NOoyOVtFUvFMRQdxAX/JZxU3/vi8AX0R3phUR9Sgd9QshybKzahUX1vr70IRXav8a+nRsJGe6gT5/wXcGLwBFqGL+lyp82FOk8DNlVsxJrSG+GyulDuKtf3ERHR1DAg5CipvOWlaQ934vTwOXSHu/WZeKk6676z6jbUumt0M7pVfcwkKMj3HogNYnf3Hmy98jLi6uddyy+v+CWsLVurK/ep/DwJM03+Fjzb8iwuB1p1t8JkalVlfk/tPbiv+q4p/y7y/V9Uj3tn5w4E4n6jdDyX1Y1VKiT84vKfm/JjJyIiBoSc9aPWn+DYwDF1hh8Y6bdXFWJKVbIWFQhc6uxeWhLurN6Cxxoeg91qN/7V1Mn3uzB8EV859xXdpXA9VSqQPNnwuD4rn0p3QyQRwV+e+Ct0R7p12LkW+V02lN+C9y18LypdFUbptZ0cPIPX2rfi7NAZ9bxc+y1c6arCUwuexi3l6+HI8LgKIqJCxVkMOWgo5kd76Aq6Q126GT2cCCGajKigENPXw/FhDKqz/yMDx7G7Z68OENPVHenFicGTUwoHok99/cnBU2gOtholk4smo7gcale/x9B1w4GQsNKqvu9bfYeMkmuT8HGk/zAuBy9fNxyIIfVc7eraBX/cr38WERFdHwNCDnr1yitovU6zvOgOd2FX50682PaiDglTbQxqCjRjZ9dOHFaV7FQlVUV/bvgcLgyfN0omNxQdwkvqMcnYianqj/ajyX/pna6Va3mx7SWcHDihW1emQoKVdHP8sOVH6FVBh4iIro8BIQedUmfqcvZ9PTF1pi4tDft69mN/31t6RP9UNPmb8Xbf2+gJdxslUyOzEDpDneqxDRsl48kZuoyVOK1+h6m0HqTF1WOXyrtZVeTXaxU42n9UB4qptB6kScvLob5D+rEREdH1MSDkEKlcZTrgdCpWIYP0Xmt/TXcZXK8ZXSr3LlXJS2U/E+2hdlVBH0PfBP8+nozrwZQScGZiMDoyaPKiv0l3U4wmrQrStXB84MS0WibGknEXAzP83YmIzIQBIYdIBXtOVWBjK8frkUDRFerAT9pewMnB0wgmgsY9451X3/9y6Ipxa/qaA814rWMrjg4cM0reJeFGxhFIl8dMSNA52LMfL7b/TK9tMFo8FUebCiffbvp3+MfcNx2vtL+CS/5m4xYREU2GASFHyBlyLBVTFfiFKXcVjNUT6sSLV36GM0PnJhyTkFS3pem/RVXysyGLKu1XFbm0VKR/hlxf9F/Cof7D02r6H0uCwNmBUwjFg1e1hPSrs/79vW9hSF1fb2zGtci4BVnnYbqtNEREZsOAkCOkMhyIDuKt7r0IXaMF4Hp6Q114SYWEvb37dGU7mpzhD6uL9PfPhgxYDKqzeBkzkK6sJRT0q+DQFezQt2fr1PBZ/XjTZBbFvq43jVuzc6DvbZwaOmvcIiKiiTAg5IhQMoSmYMu0uxfGkopapkfuVpXpmz17jdIRcgbeHspMBR5QZ+Kvde14Z5pkU6AFrXra4czP7kfb270PHeqxypl+IB7UrRbSwpIJzf5LOKcCQr8KZERENDHbHynG55RF3eEebO3YpirC6c0smIhU0jIOQQYkxlNJVLsq8fKVrXrmQl9UnfVfYxDjVI20eAzopv8udXYvMwvOD5+f1QDC0WTth75oP6IqFLQG27BPhR1Z+yETEqm4bklxWO1Y5ltmlBIR0WhcSTFHSOX6j2e+rKfjZYrd4kCdtx6bKjfhjY43MKzOmGfTfz8Rt82DEmcp/CqMTHVdgqmSpZEXFi1Sn1jQ4m8ySjPnlopb8JHFH9E/h4hmz2Fz6L8nm8XKHVULAANCjjg7dBZfPP33xq3MsVnsKHGVYSDcq7sf8o3dOnLAkTUfMm2BdwE2VmzU35+IZs9pc+r9TuwqHMjHWG67F0X2IlS4yvW+MgwRuY0BYYbkaQsmQnpBI+mHH91sL9WNRSVol82ltzT2qLNsSdSTiScTOD10Cl8++xWjhIio8FS4qlDjqcUK3w1YUrRIt3LK8VJOBKrUfW51zJS9WSg3MCDMgDxl8nGw7zB2d7+J1kAzImP2NHDbPaj3NuKOytuxqmQFiu3FOlVPtLGSnr3Qdwg/annOKCEiMgdpwatwV+M9C57GsuIl+lgp44PYspd9DAgzIE+ZrO//p8f/TE/1m6zpfqQvzoYFxYtwU9kaLC9ehpW+5ca972oJtOL1zh04MGbWARGROVjgtDpQV9SI+2vvw63s+ssJDAjTJCv8nRo6ja1XXkFnuGtKC+7IFsNumxsuq0tv1SykJaFcpeY1pTfpAX5b21/VUweJiMxKuhqkBaHUUYpqTw02lG/AOnWMnMoW85R5DAjT1OxvwY/bnsfZwdNGycxIOnap0FDuLB9ZKjncadxDRGRuFljhtrtR567Dw/WPYGXJDfoki60K84sBYZpODpzCVy98Tc/TJyKiuSNdtMt8N6BeBYXGogVYWrwUNa5q2NmiMC84XHSaZJEdhgMiorknrauy6umOrh3Y1vE6dnXtxkX/ReNemmsMCERElPM6Q+14s2sXtndu1+vGyOBuNoDPLQYEIiLKC7IB3ZH+I/ins1/Bsy0/RCgRysjS8TQxBgQiIsorsrJqR+gKjgyezNj+LzQeA8I0Wa02uGwe4xYREWVDKB7ET1p+iD8//hc4PXiaLQlzgAFhmmRzIlkqlIiIskcWqJNdWXsiPdjZ/SYuzsGGbmbHgDBNFc5y3FK+wbhFRETZdm7oHLZ37cDxgROIJeNGKc0WA8I0+ew+rC5dhVpPPazciYyIKOuCcT9OqnDwRud2HO0/ytkNGcKAME2yQEeZoxRrytfpJZSJiCj7ZMO804OnVEh4A+1cmTYjGBBmwGl16o2XHJbxOzMSEVH2dEd68JoKCR2hDsTZ3TArDAgz4LK5cFPJKrYgEBHlGNn8bl/XbvzJsT9Ff7Sf3Q2zwIBAREQFyR8PID6FHXdpYgwIsyBbNnN3MSKi3CPTIL/b9D283P4qroQ6jFKaDgaEGbOgwlUNh9Vp3CYiolxyOdiKAz370RFsN0poOhgQZshqsWBN2RoUO4qNEiIiyjW9kR40BZrVdZ9RQlPFgDBNMip2KDaM9lAnkEqxg4GIKMedGz6Ps+oSS8aMEpoKS4pDPCckT0tSfUQSUfjjfkSTUVWWRDgRQUe4C83BVhzuPahuh4x/QUREuciizoVvLr8Zj9Q/jMXFi4xSuh4GhDHk6UioIJBIxTEUH9bre+/uehOtgWa9gxgREeWn9WXr8Msrf9m4RdfDgDBGf3RAh4Lz/ot4u+eA3n9cmqUSnCpDRJTXGBCmhwFBGYwO45X2l9EcaNZjDKQbIZQIIRD3G19BRET5rsJViTuqt+DJhseMEroWUweEUDyEVzteQ3eoCxf8FzAUGzLuISKiQmOz2FHlrtIh4Z7qu+C2uYx7aCKmnsUQTcawv2c/DvcfYTggIpohOc9MxBL6OpfJ2LKecDf2dO/VA8/p2kzbgiDhoDV4GX9/6ot6nAEREU1d99lu9F/qRyqRhFQiiWgCNqdNT/2uWF6J8sXlsLtyc0M7h8WB/37zf9c781osnKw+GdMGhIHoIN7s3YeXL7/IAYhERNMQGY5g/z/vx/HnjiOpgsFYNz59I9Z+aC0ql1fB7sy9kGC32PE7a/4Lat11egt/mphpuxikBaE73JvzTWJEVLjk+BOPxhHxRxAaCCHYF9TX0WAUybg6M8/B45M8tstvXUbPuZ4Jw4E4+/JZHPnuEQy2DhgluUX2aTg7fAHBRNAooYmYtgWhI9SJH15+ASf7j6q3StIoJSKaP9Jv37SrCRe3X0T70XaE+0MoqinG4ruWYOVjK1ClzsCtttw6j9v1xV24sO0CAp1+pJKTVx9WuxVL712Kx//sCaMkt3jtRfjVlZ/H0uKlRgmNZdoWBJvFBp+jiEslE1FWJOIJ+FUle+Cf96Np5yX4O4YRC8YwdHkQZ356Cjv+Yru6Hb1mJZwNncc6EOwOXPdxSQuIjEvIVaF4UC+KR5MzbUDwOXzYWH4zrBZTT+Qgoizou9SHff93H7b/xRvob+pH1K+CQGKkwpWKNTwQRs+ZHmz9o60YVsEhl0QDMf0Yp0K6T6TbJBdJN4P8nyZn2trRZXWi3lPHEaxENO+GrgzhzItn0LqvddLKNt39EOwPIpnIpTPdqVeqcoIuLSW5iqvkXptpA4IEA5fVhdsqb0Wlu1ovoEFENB/ioZhupp+KnrM9CA+GjVvZZ3PaYbFO7cRKxiE4vU7jVu5pC3Xo3XlpYqZuX/fYPPjQ4mdwW9XtKHWWGqVERLmjdX8r/N25s+x76cJSOIqmVunbVEBwFefuaoWnh8+iN9Jn3KKxTB0QpBXBaXXgkboHscK3XAcGq7mfEiLKMdKPnx6fkAuWP7gcNTdWw+F1GCXjWR1WuMvccJd7jJLc1BvuQSAR4HT3SbA2VBwWOz6y+MN4pPExlLorjFIiouyrWFIBly93zsKX3bcMj/2vx7DysZVGyXhVq6px12/ejft/736jJDd1hzrQG+lFhMsuT4i7ORrkaZBFMw71HcbWjm0qWXYZ99BoMm1JVlGTJk8ZPBUPj5zdyBKrzmInPGUeFFV64S7N7TMHomy6tPMStv3Jawj3X39swfu//AHUra2DzZE7K/6lkkmE1GMPDYb0LIuWvS36WFC7rhaVSyvgrShSxwC3bmXI9YHgd9Xcg3tr70Gjp94ooTQGhDH6owM4OnAc23RI6DZKzU3mZre+1YreC716jvZwhx/xSFyFhZFwIG8hGbRktdt0UHCpoFC2uAyNmxagQh0siqqKcnZNdqJsGGgdwMmfnMThb709efeBqlddpS584B8/iMobKo3C3CJ/+zEZcNkb1L+HdCs4i5x6cGK+zBBbX7EB99feh5W+5UYJpTEgjJFMJfWo1mMqJLzasRUDkT5dZhZyZiDzljtPdKHt4GVdJq0GfU39CHT59WhqmbN9LRabRR8oZLOWouoiPUhJDhjyef2GBr06nN1t5xRTMi0J2DLVsXlPM869eg79F/v0Gbimg4EbtTfV6pUIpc9fzsZpbixVweDBugdwS/l6o4TSGBAmEYyHsLtnD/Z270FPuEdvE1roJBx0nOjUzYXth6+g7a02457M8KqA0HBLPerW1ev+S+lXtVo5DIbMS9Y6OP/aeXSf6cZAy4BeOVHCQMUNlbpbYeFtC3NuqeVCU+tpwEP1D+LOqtuNEkpjQJiEPC2yDfRrnW/gYM9b6Ap3FWRIkOVSpYlQDlBRfwTntp7HpR0XEQ/N0e8qZ0clLtzxK1t010PJghL4an26WZLIrORvULrwQv0hFNcU6S4F6bKjuVfuqsIj9Q/h3pq7jRJKY0CYgp+1v4oDPfvRHe5GsoBW3ZIVzuSA1HWmCzv/cqdeC36+rXhsJVY9sQq1a2rhLmEzKhHNryJHCR6tfwQP1eX2jItsYNvVFDxQex9u1YsplRkl+U0yobQcDLcP48BXD+Dl3/9ZVsKBOPfyWez8mx049cKpHFtOlojMIJVKckffSbAFYQp+1Po8DvYdxGCkX72N8v+NNNQxpLdrPfmjkwh0+/UshWyy2KxwFjuw6PZFePR/PmaUEhHNPbfNi0cbHsGj9Q8bJZTGFoRJyDagg7FhbOvcjuMDxwsmHIiWPS04/gP1O7XKoKjshgORSiQRGYyg62QXTr5wSg/cYm4lIsoutiCMIVMcLwWacW7oLIZjQ7gcbENfpFfv+lUITv74BI4/d1wPSsy1nU5l6qOsn1C9shq3/fJtKKou5lRIIppTbEGYHAOCoTnQijYVBjrDnWgNXEaT/xKiyYhxb36T8Qay8qFs+nLse0f17nC57uaP34zGzQtQc2ONnu1ARDQXGBAmZ+ouBslGsghST6QP+3sP4MW2F/Fa+1acHTpdMOFA6LnW287jwD/vR8+53A8H4sh3juDtb76N7rNczZKIKBtM24KQSCbgjwcwGJOllU/oaYy9kfyoPKdDwsFQ2xB+8ps/QaDTr1sTZkKa/2WvBdnbXZZTvhZ5R8XDMfi7/EjGZjduY+PnNuHmj22Ap8zN7gYiyji2IEzOtAFB9lzY2bUbW6+8iiQKZ22D0eSllY1UDn79IM68cFovmTwTsnRyw6ZGLL17qV7ZTfZXuBZZ9KXzVBd2/PV2DF8ZRkI2dJphMCmu92HtB9diw8dvhs3B/RyIKLMYECZn2i6G/kgftndsK9hwICL+CDpPdODsS2dmHA7E0vuW4Y7P34Gb3nsTyhZefy0IaW2oX1eH9/3d+/DA79+P6hurjXumT1o9ZOxE61sj+0IQEdH8MGULQle4G2/27MPWKy8bJYVJNoLZ+dc7MNg6aJRMncwmuOXTG1G2qAzeci+KaorgcDuMe69Pv63UfxJSpKtBdntrfrMJR//9qPEVUydbxi67fxke/h+PGCVERJnBFoTJmbIFoTfSh3ND54xbhUlWJQwPhGYUDmSvhNq1dXonufr19TokTCccCBkvIFtAy/LJsntj48ZGLNqyGLXr64yvmDpZq2HoyrCeiUFERPPDdAFB1jPoj/ajM9RhlBQe2ZWx83iHOmNvNkqmbsGtC7Dpc5ux6vFV8JR6MjYw0Oaw6aCw4RMbsOGTt1x3oONYsjXusWePIdQf5JLMRETzwIQBIY5gPIBwImiUFJ5gXwiXdjXh0s5LRsnUOH0u3ZQvlbgMRsw0Wc9g+QPLsennNqFqVTVsrqmHhECXH6eeP4W2t9v0XvpERDS3TBcQrBYrHFYH7JbCHRHffqxdtyBMZ8vmksYSLNqyCOVLKuZ8OqHdaceaD6xBwy2NcKlQMlWxQBSnXjitrgtjVUsiolxmuoDgtrlQ4apEpbvGKCk8zbuacOXQFePW1Nz2+dtx3+/chwWbFxglc8fusmP1U6vx2J88hvpbGozS64uH42jZ3YxYmAGBiGiumXKQYqWrAitLVhi3SFQsqZjW2XwmOIucemwCERHlHlMGhGpXFW4qWWXcKiyxUHRaqxfKOIAbn74RnvLMDUicKvl5q9+7Ggtvn954h66TnQgPhY1bREQ0F0wZEGQMwtLipfj4ko/B5yiFRX0Uitb9lzF4ZWpTG2V9gYaNDVj34fVwl7qN0vlVt6YOKx9fhbqb642S6zv76jm9tgIREc0dUwYEUewoxubKzXi88TGsr9iAYrvPuCe/dZ3uQqB7ajM0ZI2CxXcuQeUNlXpcQDZIt0bDhgbUT2N9hI5jHXqNB5OuEk5ENC9MGxCE0+rE3dV34v7a+3F3zV3YWLERDZ6pD5rLJVJZysZMsjBSZHhqze+yINLCzQthtWX3bSDTH311Uw9okcEw/J1+RANRo4SIiDLN1AFB+sBtFhtW+Jbh6QVP4ZnFz+CO6jtQ7qyAVZXnG+mXH74yNOVpgA6PAxXLKvSKh9kkiybZnNNowUgB/c0DCPWHjAIiIso0UweEsUocPqwrX4976x5Anade3S6B0+rKizEK0oIg/fLxWWzKlE8CvUG2IBARzSEGhDGqnBV4sPZe/Pbq38RvqMum6ltRpIJDzlNn1bIhknQzmEFkMKS3lSYiornBgDDGSLeDVY9PkPUSnm54AitLVsJly84o/+mQBYRkH4a8NY2Gmng0jmScezIQEc0VU273PF0vXnkF+3v2oifcbZTkHtnA6ML2C9j/T/sw0DJglF5b/c31+OD//ZBxK7vOvnIWO/56ByIDUxtguXDLImz89EYs2DT3Kz8SUW6zWexw2ly6S9itTua8Dq8+ySu2F8OtyorsXnhsHnjVpdhRpM6M3z03lnFo1e5qfaGrMSBMQp4W+WgJXsZrHdtwZvC03uQpVyWTSXQca8f2P9+Bvgu9RunkLDYLGjY24v1fer9Rkl2yudTef9qDvvPXf+xixeMrsf4jN6NuTa1RQkSFYWTwuN1qh93igMfu0WvXSMXvUpW9SwUBj/pcAoBXVfwudZ/D4lRf79D/Rr5WwoLstyPhQN9WXztyke/j0nvy0PUxIIwhuz0OxgZxOdiG/kifCgitOK3CwXBsyPiK3CQvo4xBeOurB3Bx+0UEe66xFoIFKFtUhtXvvQkbP7XRKMyuvqY+nPzxSRz59mGjZHIlC0r1jpNL712K4upio5SI5odFV7CjK3GptOW2VL4jt52q0paKeeS+0Wfs1yPdvDKLTCp4qdw9KgSMBASPDgjyM7x2tw4FRfYiHRDkZ8/3SrBmwIAwSjKVRGeoE4f6D+PwwDG0B1qNe/JH58lO7PvyXrTum/yxeyo8WPnYSmz63GZ4yjxGaXbJ27DtUBt+/Os/0gMur2XDp2/Bug+uQ0lDiVFCRLMhM7WkUk7vdivXUtHb3wkBdl0JS4XvUJX/SOXt1JW/jM+SivqdJn1VJrelOV+a9X2OIv1vKf8wICjSauCPDyOcCONg70G8fOUV3b2Ql9TLuecf9ug+fZkGGPVfPRVQFkdaos68b3rvTWi4ObcWheo81YnX/nir3rUx0B24ahCi1W6Fs9ipN3h64s+fRPnSctjsPOiQWUgVLpW4+r+qvPWHcaZt1eVyO10uJVM/m5Yzb2me103wqrL3OUrgVmfoPlXZe21FKHZ4UWL3qYrfjTJnmSpnhW8Wpg0I6V9bgsDl4BU82/wsLvov6LK8p363ngu9OPHD4zj+g+NGoaKOGbf+4m1Y/Z7V8NXk5tRNGWzp7/bjhd96HgNNA0glR14n6VZY98w6rHnfGr0sdLYXdyKaielU3GkSAmQQnlTQ0tzuVWfkpc5SuK0eVDjL9QC8UlWp+xw+XalXuMr0GT7RbJk2IIQTETT5m/G95u8ioj4PxAOIp+LGvXlOvaQJdfYtLQix4NVrBcjeB7JJU7aXV56MvB0lFMh4iqtaEGwWOIrUGY7XqYMO+xspV0il71aVtIyglz1e3HYZLe/Vze0ymE4qc+k7l7PwMqc6O1dlcpY/Vel3ukXaCqTVQD4zWgkkPIyUScvBSLl88O+DMsG0AaEt2IbvXPoumgNN+dudQEQZJ5Ws9L9LRa8HxulBcSN97NK8rvvcJQCoMFCkvsZpGRkdL03/0l8vze8jl5HPHapMKm09wt4oYwVO+cCUAWE4NozD/Ufx/ebv6YGJRJRf5Gxd+s2lr3xk+trVU99kBL3club3dOU9VSNn6DI4z6EH7I1MnZOBeTa45FqV6dH56mfKtVT402kRIMoXpgwITYEWvbbB270HjRIiyhZpKpcKXM645WxbKmA5ax+Zx+7WZTKv3aM+l3Kn3FafS8UtzfUyql6CwcjXGvPm1b+VgCAj6dOj8oloekwXEKTF4O3+I/hR64/RH5naojxENH1yZi1N87Xummv2u4/0m0tT/Mi0OQkDcuYvt9PT5qRP36eb9GVhHKdusmczPdHcMl1AkMGJe7r34ActPzBKiCiTpMKXYFCtgsGCooW4u+pO9XmlPpOfySh+IsoO0wUEfyygA8KPL//YKCGi2RoZUT8ygt7nKsUtFZvwVMNjuo+eiPKTKbsYDvW9je83P4tA3G+UEtFsLChegruqtuCG4qV6dL+0Fsg6+OwGIMpfphu5I2c5Zc5yLFYHMiKarZE1AN7b+BQ2lK9HracGJQ6fHiDIcECU30w5tLfOU4uby9cZt4hoJkocJbi16nZ8bPFHdMuBDCKUgYlEVBhMGRCK7UVY4G1ElbvGKCGi6ZABiLepcHBfzT3YXLlJzz4gosJiynUQxEB0EPt638LFoXNoC13R2zknUgnjXiKaiCzqW6PCwcbKjbit8lYVFKqMe4io0Jg2IAgJBL2Rfuzp3Yvm4SYVGgb0KouhRND4CiIarcHbgDur78KG8g16XwEiKlymDgijSVi44G/Czq5dONJ3iEswE40h4wt+acUvYW3ZGqOEKD+lq71YLIZkMgm73a4vdDWuP2qQ+ds3FC/BbZWbscS3zCglorQbVTCQnQmJCkEikcCOHTvw7LPP4tixY0YpjcYWhDFCiTCGYkMYig7hzPB5HOjZh/5oP5Icn0AmJcscf2DxB7GkaDEqXRV63wMiIWff/f39OHXqFMLhMMrLy9HQ0ICKigq4XLk3cPX48eP4h3/4Bxw4cEDfHhoagtfrxa/+6q/i85//vC6jdzEgTEK6HPqjg7gSbMPPrvwMrYFWbgtNplTqKMXvrf09Pftnsv0UyFyi0Si2bduGV155BU1NTejp6UE8Hofb7UZRURHuuOMOPPzww1izZg2Ki4uNf5VdHR0durXgf/7P/4muri6jFKisrMQXvvAF/PZv/7ZRQmkMCNchQWFrx+t4q+ctdIc7EU/FjXuICp/H5sVNZTfhM0s/BZuVaxxkklSy7e3t2Lp1q76WM/D04djhcKCmpkZXsosXL86Js3Fpku/u7sa3v/1tdHZ24vDhwzh06BD6+vp0S8JoN9xwAzZs2IDly5dj9erV+OxnP2vckx0/+clP8LOf/Uw/5j179hilIxgQJseAcB2hRAi7u/fgYO8htIeuIJ6MGfcQFb4GbyPeu/B9uKlkVV60HkhFJQPPhFSyVmtuPuYrV65g586dOHLkCH74wx+ipaUFoVDoqoAgTfUf+MAH8IlPfAI33XSTPjPPpuHhYfzTP/0T/uZv/kYHhKlwOp3YtGmT/h2rqqpgs81/yJTWgv/yX/4LvvGNbxgl75L3R2NjI373d38X/+E//AejlNIYEMaQpyOWimMwOoiBaD/6owPY2r4VV1Q4IDITn6MEt1RswPsWvFePO8i1pZMjkQjOnDmDgYGBdypWCQiBQEB/7vF43hmZXlpaqs9qfT6fvp0tFy5c0K0F0gf+pS99CRcvXjTumdyv/Mqv4KGHHsItt9yCBQsWzHtrgjzP0nIgj/lzn/ucDgoTVRtS+Usrw1h1dXX4wz/8Q92SsHHjRpSVlRn3zC15jDI2Yvfu3fiXf/kX7Nu3z7hnJBjceuutOnQtWrQIH/nIR/DEE08Y91IaA8IYkUQEbaF27O3Zjze7dhqlROZzS8VGPLPoQyjNsfUOpBKSSkoqV2kW3rVrl+7/vhbpE/8f/+N/6EpBBtJlo2VBKtrf+Z3fwde+9jX4/dPfKO6Xf/mX8Ru/8RtYsWKFbmGYL5cuXcLXv/513Xc/NgBIAJNBfhK85DI4OKhbQiSkpVty0iSwvfjii7jvvvvmJWxKWHzmmWfw2muv6cGIafLaV1dX68AjrQe52sqUC/jMjHF88AS+duHfsLdrt1FCZE6yG6NsvJRrpMXgv/23/4ann35aN9NfLxwIOXv81Kc+hV//9V+/qrKYT3v37sWJEydmFA7EN7/5Tfyv//W/cPr0aaNkfshz93d/93cThoMbb7wRv//7v6/79t9++2288cYb+NM//VM9/mCsyYLDXDp69Oi411vGdvzBH/yBDorcUOza2IKgSKvBj1t/gvPD5xFMBPU0Ry6URGa3pXoLPrn0E8at7Dt37hy+973v6UFy0kwvB/6JmrQnI2eKMqJ+4cKF+Pmf/3l88IMfxJIlS4x7546cyUrlKZWSNHenu0CEPKZVq1bh3nvv1Rc5o5VBfwcPHsSbb76p5+mnf0epzOQs/dFHH9VT9eQseK4rOKnwpStExhCMHoh4//334zOf+Qzuuece3WWQbpWRyl8CkEx9lPAm/f4y2yFNmvPluf/4xz+OlStXGqWZJ10i//t//2/dtSCtGmkPPPCAfu4kJGSrJSmf2P5IMT43nVgyhtND5/B6xxs4NnAcPZFuhBNhTmck07NbHVhavARrym4ySrJLzmOkqfgv//IvdVAYPeJ/quTr0/3p0j0hffpSOc8lad2QAYl//Md/rCv70WezMoBPRvn/1V/9le7/lrPuZcuW6UpUzszXrVunBzFKZZsOCfL4pcKTiviuu+7S/f5zFRJk4KSEsR//+MdXhRoJMrJuwOOPP67HREgXg1S08jjk8UhXgqyDIPdJqJBuhTR57DLAUYKQjEeYC9L9JN0Hf/Inf6Kfu/T7RLplZMCkjOmQx8zWg+szbUCQxY/e6NyhZyecGTqDQHxmzX5EhajW06DCwVosLlpolGTX888/j3/8x3/U0+pGkxYBOehLa4AMNHvssceuutx22216gKJUzKOb9uUsXboqpGKTM/G5mqsvLR0yQO+ll17SlWO6srr55pvxe7/3e3jyySf1pb6+/p1BlTIIMb3gkJTLv5N1BiQUCQkJUnnL+gPyu8/VY5exEhIQ5GcJqVDlcUmXgjy38rxdS3psgjze0a+bvBYShG6//Xa9bkKmnTx5UndzSKtN+vmWVg4JND/3cz83py0XhcaUASGSiOJSoBk/ufw8OmTqYopTF4lGW1WyChsqbkZZlpdWlkpcWg6kmVvWC0iTil0GHkrlKgPR5CKfb9my5aqLnJXLGblUVHLWLWfzaTKjoK2tTZ/tytl6Js8o5YxfKtbvfOc7+Ou//ut3pjDKz5LH/Qu/8Av6LFx+7mR7AEi5TG+UgCNz9aVilSl78r3lzHj//v26kpUgkemKVro45Dl/6623jJKRMPZrv/Zr+PSnP62b6KeipKREf+0PfvADve6DkMcvr1+6u0eCUaZIS4d0bfzFX/yFUTJCwoFMY3zkkUfYcjANpgwIfdE+3aVwZvCUUUJEo8mGTGvL1sJpnb/R8hN59dVX8Wd/9md6pkK6D1ya5qV5+jd/8zd1f7ZUknJmOxGpfORsdf369fprzp49q1sP0meWly9f1hXW3XffrSviTJEzflmcR85kg8F3d4eVEfy/9Vu/hQ9/+MNTrqjkjPfOO+/UswlGT9UTEnpk+mBtbW1G1hiQ50UqWQk1UtGmW13kscp0xe9///vTmqaYDj/SVdLa2vrOgFL5XMKadLHIrIxMkdD305/+dNxiSP/pP/0n3cLEcDA9phuhIX8A3ZEenBo6Y5QQ0dUscNvc8KhLtkilLZXs//k//0c3FacrFqlwpMKXAWjvfe979eI7UyEVqHy9LJgjZ+OjKwoJDbIEr/zMdHCYDQkycuYtAyplvEOaNLm/733v0yFhuoPjZL6+dDdIs/7ofyuVobSwSFdGJkjgkIGUsoRy+nvKz5PwJEFkJhWstJpIy4OEAQl3aefPn9fPkTznmXjepStGBnZKd85o8npne5GpfGW6gCBLJ/epgHDZ32SUENFosiiSQ12yuXKinLnK2bdMU5Pm+TRZdliaiqWSlQp3OqQF4aMf/agelzC6314WW5K+9tED2mZDmtLljFlmAIwmix1Jl8J0H3ea/N7S4Dv6sUuF/l//63/VswwyQQb4fexjH9OhKU1+nnTfyDiQmSzSlP73sgqjhIw0acmR1zdT5DWUAZ+yONJoMntElqym6TNdQIgkIwgnIsYtIhpLgoE1i02x0nIgTdky718q7TQZFS9n4J/85Cdn3FQsFZysJSBdDqMXG2pubtaV7+jljmdK1vwfPV4iTZZMlp87U9JdIl0NMkVwLBnAODpIzYS0fEjgGEseszznk42VmAp5vWRA5dhuHBlXIc9VenzCbMjMFOliGE0Gg0ognOqYCbqa6QKCy+pCkb1InyER0XixVEy3tGWDNBNLE7ecCUpQSI87kEF4ModdBvbNZqyANJfL1EbpupC5/GkyGFIG0slgx7GVzHRI14e0fMggvzT5mdJ6IGfPs2nqlu8j/fXyvcZW1l/96lf1uAEZdDkTUkHLYkcypmP0lEap2GUgoQz4lM9nGszk30nAkQpbunvSZByCzPKQrhJ5DWZKBoTK9MnRAUd+poS+aw0EpWszXUCwW+0odZah2vPum5SI3pVIJtQlPu+LhfX29uqzyS9/+cu62X/0mbzM+ZfKW/qxZ1tRSdiQJZdlK2IZZS9kjINsByx971JpTXQmfT0SZmRwnIyZkKAjZOCgVIi/+Iu/qCva0eMHZkIChgxalLUIRj8H0iXw3HPPjet/nyoZNCjdFPL8j/7dZQaIVLCTDQKdrqeeeuqqsQzS6iFTIGVK5VQ3gJqIdOdMtMKktH5kcvCp2ZhyFoM0ocbUAfD88DmjhIhGa/QuwIKihXDZ5n5jIKmYZXS+nEXKYEE52MuAwTTZZEmm1knlMtP++8nI95N5+unKSUKJdD3IbTnjnUrTtPz748eP6wpafofRAxNlUOF//s//WYcbqWRnGmxGk8cngzMlkMiZc7p5XsZtyJmytIxM53mS7yNTJr/4xS/q1yJNKvIPfehDeklrWdgoE2TAoIQmma6Zbu2Qny/Pt3QfzWRvBHnNZHyDzLpIrxUh4x5kUOr73//+q8Zs0PSYMiB47V7YLTYc7DuUtaZUolxW7qpAracO5c7M7rwnB3OpUKW1QC5y5ipnvV//+td1ODh27NhV4UDOvmXQnBzoly5dapRmhrRGSCuCNKnLKodpckYrF1lfQJrEr9U8Lb+PDLaTFR5lv4LR6yxIRSiV7L/927/pCjsT4UDI95LHLt9bBg6mm+bTQUHGaqxdu1Z/PhUyW0FWO/zud79rlIyQpZSl5WM24ybGktAlLSASREY/5/KekFYdWfp6uhW6fC9ZUjk9OFEClDw/0o0krTbsXpg503UxpLntHizzLUepoxQ2C99ARKMNRofQH5l5n/BEJBDIMsnSDC/N2f/6r/+KP//zP9e7LEpIGH3mLZWpnG1KMJCKajoV3nTIrAgZxCbXo0lFL8v1ymOVpuv03g/SFSFnvHKmKl8jmy/JlMavfOUr+v40WZhJKnD53nNBpgvKIlBSoY5eJEmmDv7t3/6tHrAnle7obpqJSBP/9u3br1oOWcjjl/UlpKLNNPne0jIztulfpjy+/vrreuzJVMhrIetYyFLQo8deSOuK7Fchz898b41daEy9WZNs0nSg723s6NyOrlAH4qnr7wpHZAZOqxt31dyJDy36gFEye7JJjjQFS6V6LRIOZDEeOXuVRYVkgZ65JJW9dGvIVLyJDofy82UpZxkkKYP1ZByA9PnLWav0nU80XkGay2X6oZwVz6WXX35ZD/KTQZHpxy6BQfaZkLEcMiBzskpSWmqka0HOtGXWSJo8//L7ypLKmzdvNkozS7qUZKXGb33rW1c95/K6y+8jr/v1WlwkcMrX/ehHP7oqnMmqiTMdi0FXM20LgpD53rdW3IJfWv7zWO5bDov6ICIgmgyrAD3Sn5spUqnK/gHXI2fFMhtA9iq43nr/mSAVqJx1SpfCRJWS9JdLN8HnP//5dwY3Sr+8VG6TDWaUFgnpnphrsh6EjBMYvRqhBB4JDLLvwLXWGZBWA+lhlnETadL/L8+D/K6yzPNckW4LGSMgXQCjyeBOqeylleZ6pPVDWg9k7YY0ef0ysaIkjeB2z4qM1u4MdSIQD+D00Bns6NqFIDdvIpPL9HbP/+///T+94ZJMpxtLKqb3vOc9eiEjadaWkCBdDLMd9T9VMsBPBhrKeAJZlnemUx1lrQNpiZD9FmRw5XyQ5nXpqpEQM/pMWoKP7AopMzXkzFxaQqTylCWbpXKVLh1poh9dwUqzv4wFSS8mNVfPv1Q78lzLmb4MQB1NZk587nOf0y0YMmZhLOmCkBYfeS/JdboKk99T3kOyBPdctXyYDQPCGN3hHjQHWjAcG8LbA0fR6m/S20ITmc3ykhV4rOFxrC7JzO53UjHJQLLRI+XT5MxPmsNlrEF66uF8k0OhDPSTSkvGHMgAQNkLIr3M82SkT11mKcj+ENJvL4Pw5ntqnYQumV4pSw3/8z//s1H6Lul2kApfnmdZfGrs7ySBTLacTk8nna++e5m9IMFRZlBIl0G65UAGpMr+GBIQpNVGWnhkMKYEt/SCSDKQdHQLzmc/+1m92qSMPeDAxMxgQJiE7Pgo+zXIVMjDfW9jIJrZAVtEuc7nKMEtFRvxgYXv07N+rtcnXEgkKMiaANIML9sHS1/96AWEhExblFYCaS6XvQakSV4q4mw9T/KYZZDff/yP/1EPBp0qaVWQ7ZulFWKuBoNORoKKtAjIIk/f+MY3xq2FIBW9rMMgLSDSOiKzXkYvoJUmXTqyQuanPvUpo4QywZTTHKfCbrWhzlOLBk8DoskowsmIupYV5jiQkcwhpt73sqpiqQoKtepvwUwBQSpNOYuVVgFp8paKX/r5ZfyBVKJykbNt6UeXi3ydTK/L5nMkj1keg5x1S4UqZ91SqcpsholIl4OEGulOkG4Rucw36cKQxyvPbXrqqwSxdACQa2lxkrEr0qoj9409p5W1E6TVQ2YuzPWAVrNhC8J1yPgE6XLY33sQxweOoz8ytSk4RIVABu5Wu6vxB2u/oFchpdwnh3SZoSAzBaSfXsZWyDiD9CJC0n0glwcffFB3K0gTfi5UrBICpHtE1mOQ6ZrXI4FIwsEHPvABvQS3dFFRZjEgTED/gaUSuuVAWg2+eelbODN4BinM79KzRLlA1gr5wtrf1wuMSWAwU0tCvpNQIKstymyGdLeDNMfLmANpupfxE7lEBovKPhyy6JS0HkgXhIwzkM/lfSctDtJKIhfp4pGppDKLQ1pMKPMYECYQSoRxbvgCvnXxG7oFQYICV1wks7JZpLutAZ+94TOoddeo26aeHZ1X5PCermjTK1TKmbdUtNK/n2thTx6vzLCQ6Y6yEJVs3CUDRWWqqXTzSIuBrEch00zltnRPyKJR8zXbxWwYEMZoCjTjze69ODd4Bt2Rd1d2IzIzWW10S81duL/2XtSpkEA0lyTUyKBL6RqR2QvSiiAhQMKAzBCR1gOGgrnHgGB4s3sPLvovoTfcg/ZwB/yxd+cGExH0LqhPND6Jm8vWwefgBjhEhc7UAUG6D/zxAM4On9fLLbf4m7ncMtE1rChZhbtr7sJqdS1jEoiocJk2IATjId2dIKHg6OBxdATbEU1OPB2IiEZYLTbcqMLBbVW3Y1XJSrYkEBUwUwaERCqJ1sBlfL/lByogXEJKfRDR1C0pXorbVUhY5F2AxqIFsMHK2Q1EBcaUASEQC+DIwDF8+9K3jBIimolyZzl+ddWvocZVxXUSiAqMKYeBdkW6cXzwpHGLiGZqIDqIfzjzjxiKvbtJEBEVBtO1IMjAxLd638L3mr+PcIa3syUyI4s6z6h2V+n9Gu6ovhObKjai1JmdDZeIKHNM14IgmzANx/wMB0QZIiuMdoW7cCXUjp2dO/Bsy3PY3b2Xu6AS5TnTtSDI0sl71cHr2ZZndWsCEWWWw+rUmzstL16mV2EUMvuh3FWBEmcpimxFKHH44LG51dc64FJfb+XqjEQ5x5SDFN/uO6xnMAxxC2eieSEBocJViTJnGYrtxXqHSI/NA6fNAbfVrYOEzWqH3aIu6tppc+rPXVaXvi0hQj53GeXcE4Jo7pkyIDQHWrGt8w0c7NlvlBBRtlgsVqh4AIeq/HUIsLtRZC+CU33uU2HCbZPbXt3qUKzKR1ocbCoiTJ18vYQQaamwWx0j1xJGjHKHDifpcvW9GT6IzBkQ5Fc+P3wef3f67+XWSCERFSRpbXCqkOGVcGFzoVgFDQkd0pJRZPPq8CE7VkoA0fer2xIaZPClBAa9i6D6SF9b5VqVj3yuyuWDgYIKkGkDwiX/JXzpzD9y9UQieodU9rIxlbRmFEmAcBTDo1svSuCxelDuLNVLTMvtcmeZChYSNly6NYKo0JgyIAgZYd0e6sDzV17ChcGzDApE9I6RVgFpIzCujc9HWhSkS8Qok9vGx1TJv5eWCmnRcKZbNKxGi4bdo8ula0UGcZY4S1Bk8+gWDaL5ZtqAIBLJhN65scnfjO2d21VguGLcQ0Q0dyRYSEuFVPwyCFPih1zr2zI2Qj6XcRnq2mFzqM9GBm5KoBgZk1Gk7kuP0XDpbhKvzatDheyPwUBBmWDqgJDmjwX0mIT+aB8u+C/iSN8R7s9ARDlipOUiHSZkMKXM5pCAMdK9MTJVVKaMOmXaqCqTwDFVemyFEUzke0iXily7bR79fSWQeOxuOC3S7TISQuTxUOFjQBglkUrosQlH+48hlAjhcP8RhOMhhgUiKmgSPmwqFDgkdBgBQYKAzCSREDLyuVOPv3CrsukEBOl8sarvK4M75ftJyJG1MuT7jQSRkTEc8n3TIUe+hrKPAWES/pgfz7e9iNZAMzpDnYhwjAIR0YzYVRiwqVDhsXnhUmHDLWMtpIVChQPpJpEWkWLbyJRWaa2Q6a7vtpo49LWEl/RaGdL1ImUSMvS0VPngTJKMY0CYhDwtSfVxbPAk9nS9icuBVgQTQS4fS0Q0h6Syl9YMqfx1gHCU6utiR7EeZyFrYcg4CxnYWSazSlSokNAw9YAwMqRUulXSIURaSCSc0NUYEKYgnozjQN8h7OzaiRZ/k1FKRET5SMZtFDtL9NLfsmX55oqNuKV8vXEvpXGkyRRIV8NLbS+hLdBqlBARUb6Kp2IYjPSjzd+Ci0Pn0RfpNe6h0diCMAHZxKkv2o9/b/p3PRWyM9ypxyRIlwMRERUOt82LRxsewaP1DxsllMYWhDGGYsM4OnACL7a9hDODZ3Bu+JwqG2I4ICIiU2FAMDQFWrC7601sbd+qF02SHR85vZGIiMzK1AFBz1RIJdET6cX+ngN48crPsK1jG84NnUGM0xqJiMjETBsQ4skEBmNDaA60YE/PPpwYOI7BaL9xLxERkbmZNiAMx4ewvWsn/s/Jv8XLbS+hN9Jj3ENERESmDQj9kX5s79iGJBJGCREREaWZMiB0hrtxdPAEolwVkYiIaEKmCwgyM6Ej1IEjfYeNEiIiIhrLdAEhloxjMDqAnnC3UUJERERjma8FwdiEiWscEBERTc50AcFpc+gdwWSnMCIiIpqY6QKCbPRZZC9GtafOKCEiIqKxTBcQxIqSG/BU42PGLSIiIhrLlAHBYXHAY/UYt4iIiGgsUwYEi8WCek89Prn0E/A5SmEx59NAREQ0KdPWjMWOYmys2IgnGh/HzRUbUGz3GfcQERGRqU+dZSbDXdVbcH/dfbin9h5srtyMRm+jcS8REZF5mTogSFeDzWLD8uJleKrxCXxw0Qdxe9UdqHBVwqrKiYiIzIqd76OUOHxYX74O99Y9gAZvI8qcZXDZXHpqJBERkZlYUrK0IL0j/XTEU3EMxIbwasdrONZ3BMPqcyIiKixumxePNjyCR+sfNkoojQFhEvK0yJLMgXgQ4XgIRwaP40DPAVwJXja+goiyzWkFXHagSF28jpEmUTfbRWkabFYXNpY/ik0VjxollMaAMAWH+49hb89eXBg+j5AKDEQ0/9y2FMpdQIXLgsVFFvhsQKnTApe6tqtQYDd6Am3sEaRpCCetKHU8imrXE0YJpTEgTCKogsD2rp0IxPxoCV5GR6hdlQWMe4lorkgDgMcB1LqB1SUWeKTGV/851B1F9pS6WFChgoFbBQNpLbBZmQho5vxxec89Aq/9SaOE0hgQxoglYxiMDeHM0Dk8f/l5FRCGufMj0TyQat5rB+q9wCoVDGo9wI0+qw4IFmYAmiMMCJNjQDAMx/zoi/ahL9KHtmAbjgwcRzvHGxDNOWkpKHVKF4IFZS5gpQ/YUM5pxjQ/GBAmx4CgSKuBjDPY07MHF4cvIp6MGvcQ0VyRLgOvygGPL7BgfZkFJaqADQU03xgQJifdfaYkuUguiWQCbaEO7OzcgbODpxkOiOZUSocAGT+wqBh4ZqkFmypkkBjDAVGuMW0LQjgRwSV/M77X9O8IJyN6doKsfUBEc8dqSWFdmQUfXGTTLQgSFGT2gZWDDChL2IIwOdO2IPREevDC5ef1tSyCxHBANLfKXCncVWPBQ/VWPQuhxGGB02phOCDKUaYMCEOxYVzyN6E10MIZCkRzStYuSOGBOgveu8CKu2usWOjlrASifGDKgNAb7cOZ4XN6pUQimjuyhMFdKhTcU2PBxnIrGj1WOLhuAVFeMF1ASKQSeipjk/+SUUJEmeazA2vKgFsqrLi72opqtxV2BgOivGLKgCBjDgZUSCCizJIBh2VOYH2FBZ9aasPnbrChWBUyGhDlH9MFBLvFDqfVqQ5YPGQRZVqVB3is0YJnFtngc/BvjCifmS4gSDBwWV3w2ouNEiLKlDsqrbi1wvrOxklElL/MFxAsFizzLcPD9Q8ZJUQ0OylUe1L42BILNldKAOcsBaJCYLqAIEocPizwNhq3iGi2HqyzYn25rIjIcEBUKEwZEGwWG2rdNeqg9oD+nIhmxqP+fO6vVeGgzIpiu7TQGXcQUd4zZUAQ5a5yPNrwKNaVrVefV6igoI5uRDQtsj3zYw1WPa2RKyISFRbTBgQZrOixefC+he/FrVW3YUXJCtS66+C1eY2vIKLJyJIGxQ7oVRFltgLDAVHh4XbPBlkf4aK/CTu7duNI3yF9m4gmVqLCwcZKC96/0MYZC5TXuFnT5EzbgjCWVX0sK16KO6pvxw2lq4xSIprICp9Fjz3gCB6iwsUWhDFkG+jh2LBebfFioAm7u95EX6SHLQpEBp8Tem+Fx+pUQMiz5ZOT6nDXEk5h/wDQEQZixtFPWkEq1e91ZzmwwD2yyySZw/VaEOLJOE74j2Nbz9ar9u+xqY86dyNuLtmA1cU3GqWFhQFhEiNLMg+jI9SJvmg/zgydxfnhcxiMqiMLkUk1eGWPBQtuKrWgRlWkuUSOZHL4luEQXhvgUJ+MrucjyRSaVTh4vRtoU+EgqDJ/+uAnX+a2ArVu4MFKC5ap39MjO01RwZOAYMHD8Nif0C3JoyVTSRwaPIgdfW+o98xlozTNot5nRSpQLsSG0ltwW9ltRmnhvG8YEKbgSqgDu7rfxOG+wxhSYYHIrCpcKiR4gFJnbhwELbIokzqm60ej/pcOCC5V5lb3+RxAiT2FSocFdlX2UlcKJ4fVWeE1jnprS4CHVEhY6CmkQz1NZli9GS4GluBy+AY4rC4U2X3qPeNTFf8CBBIBbO99XYWEA8ZXj+ewOLGsaDmeqnkPGlz16v1XOO8aBoRJxJIxNAVa0RfpRnuoE2eHz+FK8AriyajxFUQ0r9Rx1zp60IPc1gFBXdTn+rg86tgs3QYymLJMXaqdI60Ku/uA6HV2eZdw8UAVsKnUggruJ1HwJCBs60lhZ59FBwSfvQSljlIscS9RASGIi8Hz6I52Gl89Mfk3t5RuxntUSLBKYi0QDAhjyNMRS8V0KPjplZdwfvCsOqBEjHuJKCtUPW1TNb5NVmqch+PvIm8KD1RasN5XOAd7mlg6IOyY5Qa/FY5KfGH5HxZUQOC735BIJRFKhDEYG0RzoBW7u/fgZP8xhgOibDJaBSQYzFc4EOGERf3ts/WApqPwzrUZEAxD0SHs6NqNL539Mv7+1Bexp2uXcQ8RZYtDZhR4JRyoG/NYX7ttgJNHRzI5/gkokUQEL115Ca+3v4buUIeeypIqwDRIlDdUGLC7RloMZNDXyMW4bx7ImIVSrr5OU2S12OG1+4xbhcO0YxCkS2EgOoDnWp5DNBnF5cBlDMeHjXuJKFskFNicFljl9GWeg4G4SR3n5TIUAy6HRhqO5SFY1f8fqAYaXNK6MM8PiubMbMcgyD4+C9yLcFfF3TjtP61OOIP6FNNldaHWXY8VRSux1LPE+Or8YtqA0Bvpw7aON7Czc7tuMSCi7JPNVfV4gyyu37zYI6PSga6ouowagiSPSILDOnVZXmRBOWc4FITZBgRZO6HSWYUbilbg4MBbiKVG3jQSHErtZVhbsg6PVT8BtwoM+caUXQyRRBRtoSs40HuA4YAoR7wTDrK8QNGVMPRaCaPDgZAzKSnf0w80BVOIJtkNSbL2RhK90Z6rwoFIpOLoi/Xg1PAJ9Z55E2cCZ/X0+XxiyoAwEBvUGzMF436jhIiySmUCPY1RWg6yfGIuyy9PdtogkaA5BJwNAL35daynOSQhYXQ4GK072oWXu17E673bEE6q9JlHTBcQpEelJ9KD00OnjRIiyioJBw4LrHm0tHGTCgkXg2xBoKmJpaK4FDjHFoRcJ3ssyOZLl/3NRgkRZZNMZbQ752+Ng0yQ7gfZ7IloqmRfh3xjyi4GIsoNBbToHFHBMd2fp81ig9PqgsPqNEqIKFusdhUS8qdn4R0yy5GbPVKhM11AkAVXGjwN2Fi50SghomyQ1RGtOTAocSZWFgE3FjMh0NTYLQ4s8i5V1/m1+pYpG/hq3NVYW7rGuEVE801aDSQcyHU+bo8rayUs8Ro3iK7BChvKHRW4o/xOuGz5tRaCKQOCvEi17lqsKlmlTl54FkA07yQgyDbNefb3t0gFgzXFQKPbAjdXU6Tr8NqKVJBchg2lG7Hetw5OS351bZt2iFCtpwYfXfJRVLoq867Zh6ggSP2aZ3Xs7WXAk7UWLPXKjChOc6Rrq3LWYHPZ7dhSfieS6v2Sb+8Y2x8pxuemInt2S7+Qx16E3kg/YsmoevH4B080H6RXQdY+yDfBZAot4ZQKB0CxzaKOISNnWfnYTUIjokngUnBkAaxMs1psiKRiaI90IJ5KoMRerFvN9EcevGdMuxeDkF89pl68aCKK/tgADvcfw9t9h9AV6jC+gogyTipVO+Bw5V8Dps2SkoevgoEFHhtwQxHwWLUFFdyXIW/Ndi+Ga5EgIDPnLCpG2tW1tFbfVHIztpRtwULPAuOrcpdpuxiEJDin1YliRzHq3XW4p/pObKm6A0XqNhHNDalKrXl6xp1IWdSZoAVhddY5EAPO+IGt3Wx5pIlJq3Q8FdcrKYaSIQwnhnFs6G10RfPjJNTULQgT6Yn0oiXQiuHYEA71H0GLv0l3PxBRZsjiSLJyop7imOfkNyhNxnFXT6c6mI6U0fU5HFZUVLixcKEPPl92B+7NZQvCZO4sv0dvD13nqjNKchMDwiRkx8fTw2dxfugcDve9jf5ov3EPEc2G1TYSECwFstJQfCCInq/vR6ArgKSqbOj67Coclpe7sHFjDX791zcYpdmRjYCwyLMM91beh1tKsvu7Xw8DwnUMxobwRsd2nBw8qTd5iiS4ADvRbOiA4FIBoUCmCfq7/Hj1j7ahdd9lxMNxo5Sux2oFNm2qxbZtH4LX69DTXrMhGwHBZy/D/ZUPqst9RkluMvUYhGuRjTUC8SD8MT+W+5Zjqe8GeO1Fxr1ENDuFEQ40iwVWpzqUFtCvNB+SSSAUimNwMKoHjJuJjE1ITbqpeO5gC8IE5CkJJkI4Ongcr115Dd3hLiRSPDMgygQ9BsFl1S0JhWCwdRDf+uh3EA/GkUrycDoVMkZVWgw2b67F7t0fNUqzIxstCCuLb8I9FffhpuIbjZLcxIAwgVAijLPD5/Fv57+m9+/m+ghEmTMySFEFhAJZnyzYMYy9v/28+ozHiamScNDY6MOTTy7Br/zKzUZpdmQjIDxc9RjuLL8LpY5SoyQ3MSAYpEuhOdCKQ31v4+zQaYQTEfRGeox7iShT5OxRNmqySbN8HpMehRoXsMWXRFXv4EghTZEFTvX6l5a6UFXlMcqyY74DQqWzBk9UP4n1Jev1Ggm5jAHBsKvrTRzpP4orwTYMxgaMUiLKOAkI9pFuhnwm+zJsKbdgdbEMOuMAhHw1nwFhiXc5bi29FTcW34gyR5lRmrtMGxCk2yCcCGNbx+tIJOM4OXgKHSFZDpNjDYjmmow/cHjyLyDcVQ6UGLtQVjuBZV6gmOEgr81lQKh3NWBl8SoU2UYGuNeq20s8i/VtLrWcw4LxIE4OncG3Ln5DjzMgovkj4xCc3vwLCE/WADcVW1CpwoGTuzkWhLkMCAvdi3F3xT3YWLpJ7/+Tb/K7jW+GEqkkusI92NbxBuJJthgQZYOcmuTb6cm2XmDPQApdERm3ZBQSTaI13Iw3+3fhUvAi+mL9qu5JGPfkB1MGhFA8hLZQG1r8FzlDgSgLJBiMrDqYX39/YXV8363ONI8NpxCSLR2JrqM51ISvtf4Ldve/iUhSJcs8YsqA0BXpxonBU8YtIpp3EhDyuIK9FAIuhhgQaGrCyRD29e9iQMh1Mp1RFj46M3DSKCGibJDevXgkhWQettW3BIEmdSGaCmmpjqpwkG9D/kwXEGQTJlk+Od+SHFEhSkqXbB6eiMfUY47m/kq5lEPycT6A6QKCzWqD0+rIyxGlRAVHHTNTqqLNx4OnhZsvUIEzXS0p4aDaU4MlxUuMEiLKJhmsmFCn5Pk0JqHOBdS7jRtE12FRVW2xvSTvTkxNeRrd4GnAporNxi0iyibpZkhEje6GPLGiCFhVbNwgug631Y0bi9fCYXEYJfnBlAHBZy/GIu8ClOT4RhlEZiLdDLIbYra7G9zqqOiVlR4n6EGQxR/L1TG+wWVBxURfQKbksDhRYi8xbr3Lqj6KbMVY7F2CB6segNuWX81OpgwIssRlvbceH1/6CdgtBbKlHFGekwVNo6GR7oZsurUMuL9qZK8FPUhi1CjKOyuAX1lswa3lDAc0wm5xYKl3OT5c/3HY1EeajFEpc1birsr78EuLPo9qZ1XOb840lmmXWk6qX3soNoTvNH8P5wbP6CkoRJR9cgx1ZnGfhmqXLKlsgdeWQlMwhYG4nCFa9LiDVUUW+NQ5hVXdZkQoDJlYarne1YiHax6H1+pGc6gVg/FBNLoasNizGGWOUvVe8hpfmV9MvZtjIplAR7gTgbgflwItOD5wHK3qOs69GYiySkKCVMB2l6qI53nPA9l7aUMpsEldapwWPaVR4opsPildDxIOqHBkIiA4LU4s8S7DZxf8HMLqZDOWisGjwoLH5sm7VoPRTNnFkCZTHhu9DVhZshK3VW7Go/WPYEP5zbppiIiyR5as14MX1cFbxiXM51oJsgL0lQgQTFjU2Z8F1SokVKqL7NrIcEATiaai6Il2wWl16hYD6U4othfndTgQpm5BGEs20mjyN+HYwHG9X8Oh/sMIx4Pq2MSniCgbZFaYVV2kFUGOtVZpTZiHOtoxHMKC3gHUBgJGCWWSzWZFaakTixeXYPnyMqM0OzK1m2OFowJfWP7fCmqNHQaESchqiy9ceQmt/hZ0hNq58iJRlllVQLDJzAEJDJIT5vBsvv2ty7j80hkMnuwwSiiTHA4bamu9uPfeRvze791qlGZHZgKCtDRV43dv+AIDghnI05JUH8cHT2Fv15toDbYiEA8gxvEJVOCk2nWpylj63LNF/v6CoTiGhqJXL6Ak+SAdFEax2qSFwaofu+ztkIyrv95YAomYuk6MrIlsVfe7y9zwlnuuOa4h2BfEke8ex6kXTmOgacAopbmwYUM19u79GJxO9dplqftGAsKbfS7sH/ToWQgOq8xsG3ks0no8HB9GMDF5S5J0SXtsXqwoWoVPNX6aAcFsJBQc6DuEXV270OJvMkqJCpPTmsK6cgtWlGTngC2i0QQOHOjAc8+eR39f2CidnKvYCW+FV1f8kaEQ/D1BDF8ZxkDzgLo90vrnqfBg3YfX4LZf2AxnkVOXTWTvl/fj+HMnMdQ2ZJTQXLnppgo8//z7sHixT3c7ZIM/DnRF1yOQuBWljlI9+0DWL5DAEkpG8Er3S9jR+7rx1eO5rB7c5FuLD9d/WA9WzFbQmQsMCFPwXMuP8bYKCEOxQT1OgaiQuW0pPNFoxd3V2TsTiqkz/6NHu/Fzn3sFFy4OGqWTk4NyulVADml6waWELN8sGz3oYt01UVTpxad/8Al41fVk/v1T30f70Q7972luSQvCnj0fhctly1rFKgEBeFBV9I+rx2CFzRi7L49H3kuv9LyM13peVcd+/YXjrC5ei8ern0Sju0HfZkAocLIldF+0H9++9G0dCLrC3QjE/LrLgajQeewpPK0Cwn212RuBLd0EgUAMzz13HkeOdKO3N4R4fPZ/f9LNULumRiUFF5JLq5Cq9skRHZaBAGxnOmCJJtB9qhvRYNT4FzQX3G47GhuLcfvt9XjiiSXyEmStYpWAYMUj8NqfNEqu1h/rR3OoGReDl9R1E7oiHXBYXFjtuwkri1aoYNCISkclHNb8WkZ5KhgQRvHHAzgzdAYn+k8glAjj+MAxzmAg08mFgJDW3R1U4SCMYDCe0SWYUyooJMs8gNelAwLCUVh7/TKVyeh9prlks1lQUuJEdbUXPt/k3T3z4XoBQcjaBgOxAQzGB/S6OVaLXU9lrFDBwG1z6XEIhYgBwdDkb8bZ4XM4MXAcF4YvGKVE5pNLAYFork0lIJhV4Qy3nAEZfChrHhzsPYjtXTuxvXM7wwEREZFi2oAQT8b12ILvNn8f/3rh6zjQsw+DUU5pIiIiEqYMCNKrMhQbxoHegxiKDEJWPCAiIqJ3mTIgyMyEjnAH3uh4XUUDTlskIiIay5QBoSfah1NDZxFPcVVEIiKiiZguIMi0xc5QB471HzFKiIiIaCzTBQSZuTAQHUBvuMcoISIiorHM14KQGmlF4AJIREREkzNdQHDaHHpDjnJnuVFCREREY5kuIMiSmA3eRmyqzO4e5ERERLnMdAFBVDrLsdy3zLhFREREY5kyINgsNtR5anFv7f2wWkz5FBAREV2TKWtH2VZUxiHcVrkZxY4SWMz5NBAREU3KtDWj7N1d76nH041P4QOL3o915evhU2GBiIiITBwQhMvmxJ3Vd+DBugdwf+39uK3qNizwLjDuJSIiMi9LSnYuIk02cDo+cByHeg8hkoyiyX+J6yWQ6XjsKTzdaMV9tTajJHsGByPw+2OIRhN6DRMqDFarBW63DaWlTng8DqM0O/xxOVN+BF77k0YJpTEgTCCZSqI70oMvn/0KhmNDiCQiDApkGrkUEF56qQlHj3ajvz+CZJK7rhYKp9OG+voibNpUizvuqDdKs4MBYXIMCJOQHR8HVDh4uWMrjvUe1kGByAxyKSCsX/9NHDvGZdELkcUC3HprLfbt+7hRkh0MCJPj8P1JWNVHmaME76l/Ar+1+j/j/Ys+iEbvQuNeIppLoVAczz57VncxUGGSU9NgMI6WliEkEmwdykUMCJOQqZCyXoLPUYzLoXacGz6HvkivcS8RzTVphpazTCpcMhahuNipj7eUe9jFMIlgPIg3OncgEB9GS7BNbxEdjAeMe4kKVy50McTjSbS3+/HHf7wPhw93IRCIqzNOHqoKhc1mRUWFG/fe24g/+qMtsNstWQsJ7GKYHAPCKDI4sU2FgXPD53VA2NW9G4GYnwMUyVRyaQzCzp1taGoa1AFB9mGlwiAtB+Xlbtx4YwXWrasySrODAWFyDAiGYRUEuiJdONBzALu7djMUkGnlUkAgmmsMCJMz9RgEaTHoi/ajPdSBIwNH8cLlF7G3Zz/DARERmZ5pWxDk1w7EA/hOy7M4PXACkUTYuIfI3NiCQGbCFoTJmbYFQVZKbA5cxpmBkwwHREREY5gyIEjrQVeoEz9qfY7hgIiIaAKmDAjDcT8uBZrRHmrneAMiIqIJmDIgdMigxP4jxi0iIiIay3QBQfZY6In04PzwOaOEiIiIxjJlQIglo3qKIxHlt6F4Ch2RFC6HUmid4NIWTqFb3R9IsCuRaLpMN81RgsHenn34TtN3uHQr0QRyfZpj+s82rj55oy+FQ4NAb0SF/5Hiq7jUKdACTwobS4HNpVbYMLKcL5f+pzROc5yc6VoQLOrDZXXBays2Sogon0g+CCahwkESbw1IC8HE4UBE1NddCgB7+4Gjwymw3ZBo6swXENSpwzLfMjxS/7BRQkT5QroKDg8n8X+bk3izD+iPXX+HhqQ6KegIW/BSJ/BPTUlcDqcQS7L1kOh6TBcQRInDhxtUSGgsWqRbFIgo910IpPBcewpv9EBV8jL+wIJEamp/vzGVB/pUmGgKAS90pfC8ukhQIKLJmTIg2Cw2VLuqcE/NXfpzIsptUpV3R4FjQ0DbLNY2k+9zPgA9bqFHfT8impx592JQH6F4CD+5/BPEknFc8l9Cb6RXz3IgMrNMDlKUw0tQ/UkNxoFedQYfHvPnZbcAtS6gwiEDCi2TDh68os72d/WlsG/AKMiAB6uALeUW9bMn/qHSCxFMpHTLg4SJ0RMh5F8U24FqJ1Cirh3qsVN+8uuZMGvQH1uvXkenek1rUWovhcfmNv0JJLd7Nrza/hoO9x9Bd7gLwbg6xSAyqUwFhKQ6tIRUIDjpT+FSCDjrHxkzMJpH/YibS4CVRcAijwVlKjFMFBJe6U7ijd6RQYeZUutK4f5Ki57dMLZ+l3DQG03hYiiF0+pxnx4G1M13SNNrnRtY4wOWeoBlXqsOO5wdkX+GVUDY1pPCjj6gyFaM1b71WOJZhFVFq1DqKDV1SGBAMEjLwUV/M/b27MXJ/uOIp+Lq4KaOakQmM9uAIEeUmPrfUBxoVhXsD9uB0HUqdqeqce+tGDmjlxP6IqltFTk8JdSpu4wb2DmQ2dpXKvm7yoH71c/1jBrqGLVaEVE3d/SlsFdVGtdrUyx3AJ9eYNEtCe5UElYeUa9LgpTNZoFVtxplN1WNDgijPV37ftxYdKN6fcvV+9OpQqT5euQZEAzyNMhHQv2BBxNBnB06j3+78DXjXiLzmG1ACKpgcGQohR93jkwrnOoaRXL4lVyw1Av88uKRg3E4HEdLyxC2h5w47VB3ZFhxLIrFoQCWBIP6tjzUfVXVGHI49eOeaoOFbj1Q17f096IqHObQ5+soLrajvr4YDQ3FOihk02QBQVoOrOrj7op7cX/lQyi2Fxn3mAcDwgRkMSXZ0OmtvkPY1bkLfZEe3cJAZAazCQhBdbB9W4WDnepgK4MKZ0L69Z+oAdb6LPjUJ17C8dP9WP6xm7HsPTcZX5E54d4Aml89h5PfPAyH14GNn7kF1fcug6PEbXzF9PhPduDU94+h7eAVpDiVclLSclBS4sSdd9bjS1960CjNjskCQlq5oxJbyu/CQ1UPGSXmwYAwCWlJGI4NozPcif7IAE4Pn8G5oXMYjPYbX0FUmNwqIDxcZ8WW6uk3qcrCRW/JDIHYSD/+TEgXQ7UzhQprCn/2yR9iYCCCzT+3CaufWmV8RebEQjGc/MlpHPy3t3Hf79yNyhWV8NWqs1rHzFpPQoNh9F/qx7FnT+DED08apTQRaTnYtKkGP/3p+1FR4dahIRuuFxBk/c2F3sW4u+I+bCzZYJSaAwPCFFwJdWBX95s43Pc2hqIZHEZNlINslhQWFVlQ55neAVu6kpujKhzEM3Cgl8OSShinXjqvz8Tr1tWgYmm5cWfmJGIJnHrhDI4/exwf/eaHdVkm+sTf/vYR7PirXUhE2PJ4LWvXVuLVVz+I6mpv1roarhcQhMvqwfKilXiq5mkVXqtMMx6BAWESsWQMlwIt6A13oyPcoccktIeuIK7KiWgMdWy32lW4sFtgzeCBPm5MW7Bm+PumSUDoONqBtkPtuO2XNhuls9d64DIOff0wLu64hJSqgOhqVlW/+nxO3HtvI7797Sfg9TpytgUhzWcvweay2/B41ROwy5vdBBgQxpCnI5aKqTDQgRfafoYLQ2cQTXJFFaJrsdpUOHDOQSWePjrNYd2RTCR1JW5zzaxbYSKJWBJ9x9px4VuH4I2zFWEsuwp8dXVFuO++Rnzuc2uM0uyYakAQEhK+sPwP9X4+ZsCAYJBBiJFEFOFEGD2RHj1A8c2uXca9RHQtdtdIODDhTLBJ1TiBeytl6iaflFw2rYBg8+F3l/8BPFZP1qdnzge+cw2D0WHs6N6NL539J3zx9BcZDoimQa8lU/jHy2mRlSMPDho3qCAk1UdPtFevk2MGpg4I0nVwoPcQvnTmH/H3KhRsa9+K3nCXcS8RTZVkAxOcUE2LrKMgK0lS4ZDZbVfC7YgxIBQ2eaEHo0N4TYWCi8MX0B3p1kssc70DIsoU9t8WFllML5AM6rVyzMC0AaE30oMXLr+AK8E2DkIkojnBRpXCYlEfxbYi00xzNGVAkMGIbcF2HOw7qPuUiIgyTYZluE3diVt4JBjUOKtht5hjmqMp3749kV6cGTpr3CKi2ZIWV06IuppX1SELPcYNKgiyN0OFs0IFhMxNic1lpgsIchBrC17G/p59RgkRzZbsuMh88C7pWpA9JTaVjdymwmC1WOC2utjFUKj0egfJMKLJiFFCRLMlC4yyFeFd0rVQ6wIaXRb9nCTUJT7JRe5Lqgufu9wm4w/sFocOfyOvaUK9fvEJL3KfDGTM99fUdAslxZNx7OnZg+82fc8oIaJMkGmOspqiTXZbMrk7yoAnay1646m2cAqHh4ELfiA4ZpKUrC68tCiFNT4LlnksKJF9o2leTWWhJOlaWOBZjGfqP4x6V736N35s630NZ/2n9QnnWNWuOtxbcR9WF9+Y160NpmtBkD2+nVYXHFanUUJEmcAT4Hc51ZFVeqkvBlN4rh04PAh0RoDB+NWX/lgKp1R4+Fmn+pqhFAbUbco95c5KVdmvRZmjDK/0bsV3rnxLvaaH0B3tUq/jwLhLc/AiXul+CT/telG9By4Z3yX/mHKp5dbgZWzv3IG93XuMEiKaLb1ZkzplnotNlfJNnXQvuKEqfOBC0Ci8jnr1b2rUZUWRBZtKLTpk0NybSguCx+ZFraselY5yXAo1YTA6gASuvViSbBMtezfUuuqw2LMYt5bdrgJGqT5JzRemDAiRRAQnB0/hX87/i1FCRLORDgcWq7owH8zKAhUs7qu0YK0PuovCDGv+Z9N09mKYCRm7UGT3YWPprXik6mF4VdjIF6bMqC6bC3WeWqwuXa1fPCKaOeliHQkHUpkZhTRjHRFgZ18KR4dTXKWlAMjqi/74EPb278aZwFkEE0Fdlg9M24hV467BR5Z8BEuKFqPR2wi3TcV2IpoeFQjsTqvRcsB0kAnqhBYtIeDHHUB3VG5zXEIhiCbDeLXnVZxVISGUUC9wHuB2z4ps8fztS9/GsYHjepZDvqQ7omyz2i1wuBkM5oJMaFhTCjxdbUGF9DXQnJjrLoaxfPYyvLf2fdhYutEoyV0cBqO4rC482fgUHmp4FNWeOqOUiK5FxlrZORlozkhLwukhGTNlFFBB8McHdWtCPmBAUKRptMpViburtuDnb/gMfnH5L+KO6juNe4loLKuEAxe7FeZaJAmOQygw0kKd/sh17GIYQ56OSFI2c2rD820votl/CTHu9kh0FZtDAgLPL+ZDzz+/iXjnsHGrMLhcNtTWerFpUw2eeWalUZod893FIN5T+35sKb8Lrhxfj4cBYRKy4+OZ4XPoCF1BV7gbzYFmdIe6EU/FjK8gMh9pMJCuBa53MH++/bHvovNEF1LJwjlUO9T7p7zcjfvua8TXvvYYvF571lqjshEQ7q98CHdW3I1KR4VRkpty4hQgqs7QeyN9ObVutcvmxPqyNXi0/hHcX3s/bvCtgMeeP/NXieaCdC0wHMwvq1M96bImcwGJxVLo6grh1Kl+DA9HkTRZP0owEdKD43Nd1gNCOBHB5WAb3uo7BH/crze4yAXyOPzxAFoDl9Ef6VfhJQm7rAZDZGIWFQysBVZZ5bpkPCEHJONW4bCq2ke6GuT9ZLahLFKX5MOW0VnvYrjob8LWjm04P3QW71v0ftxSth4emyerg5/kKZGEd2TgGF5r34aecBcSqWsvq0lU8NSfpMOlAgI3FJpXP/rcs+g712vcKgxyeC8uduDeexvxzW8+YZRmRza6GB6rfgJbyu+Gz15slOSmrAeEvd378L3m7yOejKHMXYnPr/gF1LnrsrpedSgRxtmh8/jXC1/lughEBt214JAzPwaE+bS59QqKo4U1UDo9SHHZslL4fNkdqJeNgPCh+g/jjrI7c36nx6wGhEQygd3du3VAEFYVCmS64ceXfAwrSlbosvkiXQrNgVYc7DuIM4On9X4NfdF5fMcQ5TCbXf19OkemNZqtOTjbfqU2gTpnYZ2kyPvI4bDCKatwZvkNlY2A8Ez9R3BH+Z05v9R/VgPClVAHdnTuwK6unUbJiM8s+ww2lN8Mp23+kuXOrt040n8UV4JtGIoNGqVEJBxudbCwcd2D+STnljXqef9sowU1Lj7vc2W+A4Ld4sCH6j6M28pvN0pyV9baNwZjQzg+cBxnh84aJe860HsA2zq345K/2SjJPOk2kHEGL1x+AT9q+ZEKKbtwTj0WhgOiMVTdpMOBcZPmh2z3fH+lLM1rFFDec1m9uuVggWehUZLbshYQTg+ewZG+w+gKdxol7zo1eAo7urbj7f7D6Iv2G6WZNRQd0qFga/tr2NrxGtqClzkQkWgCMtpcY+vBvJBnWULB+hJgg88CD6eUFgSJ2JtKN+Ou8ntQ58qPJf2zFhBODpxAa6DVuDXeUHRQjwU4qcJCpiVSCbSH2vGT1p8gzlBANCkZQ2V1yGGCldR8KbIBq4uBR6stesMmyn829VHjrMPDVQ+jxlWd84MT07LyKGXYg5ytJ6+zyric1R/qPYj+6IBeTClTwyUCsSA6w93GLSKajDQa2FSFxXpq7smGjcXquV6lwsH9lRaUqwKO+chvVhUMPFYvGtwLcF/VQ3Db3MY9+SErASGhPqY6dfDc0Hn83am/x9nhC4hlaJnj8/7zeOnKz4xbRDQR3XrAU9h5s1wFg482Ah+ut6izTaOQ8lqFswr3VT+C/7T0N3Bb6WY4Lfn1wmYlILQG2/QqhVORQhL90V58v+l76sx/av/mWmQ6oyxxGYz5jRIimoicvMrSyrr5gDlhTlWqemNTiQU3eKVbgS0HhUDWOfhE4ydxZ9kdegq/vKb59rpmZZrjD1p/jEM9b2EwNmCUXJ8M8FjuW46VpTdiQ/l61HtmNsgjmoxhT/cefN9Ye4GIJiYri8uOjayr5p7MWKhVIaHImLEgDTflDuD2cguq1LWDi1PNmbma5ljpqFSvYcU7S/RLHbbQuwQL3YvVpRE+u0+X57J5bUGQLCIrE7b6m/W+C9MhXRLnhs9hb/devRVzYoZ7NtgsVvXHZ8+bQSJE2cRwMD+i6nDWGgZOq8OiXE4OA28PAi93pdCmyqMFuBdDoeuN9eJ88Jx6PU/pyyn/SRwY2Ic3el/DseFj6FcnyLm+Sq/tjxTj8zknsweagi040Lt/2gEhLZQI6id1KDaEYDyEGne1cc/USDAIJULoifSgf46mUBIVAsnQNo5ByAqpNqLqf11RQJ3gos8YfiUzHGxMbRkl4exSEGgOGQVzKKzqnn4VHAKJAIbiQwgnQ/DYiuC2uoyvyC3zGhBkJsLunn24NHwRMfX5THWGO3F68LQKCcNYWLRwZHMn+ZjiH47T6lRfa9VTLYloYgwIuaE9ApwLjFRkper18KkLl0bInPkMCGmD8QH18y6hM9IBl6q/yhxlcFgcOTdGYV7b2WWAoFTu0s0wW9KKcDnUhpfbt6I1eBm90T69f8JUtouWHbQWeRagzFlmlBDRVdRxir1wueXEMLCzD7gSZndDoZCA8HrPqzg8fESfQGdhSOA1zeshQBYlujR0DpFk2CiZnUBsGAd79uNvTv4NvnrxGzgzdF53H0hIuNYTLSmt3luPjy35OFxWl3oSeCQkGk1WT+SujblFuhqODafw0y5ZR0adIsnFuI/y10CsHy91/AT96lqWAMgl8zqLQcYN/PGR/08FhIhRkjk2ix0emxtumwd3196F+2ruhUP2pp2E/NqyroI/5kd7qBMvtv0UzYG52/uBKJ/oGQyyUA/bsnOOW4W3lcXAJxulq0E6V2k2srGb43gWlNvL8bmFP59T+zQUzKmzrMwoAx97Iz3Y1bkL32n6Lvb3HjTuHU9aEWQsQoWrAjf4lmFLzZ1Y6rsB9muECiKz0H2hOdYfSiMiSaAlBJzR4xLYhlAYUuiP9+fc0v/zOkhRWg62d27XsxnmknQz9EX60BXuQkugCccGjiGinnjpTnDaHOOmOMo8VZ/Dh3pPPRYXLUKluxJB9ViDM5xpQZTvrDaLXkWRGSE3SXfDgKpLbizmZk6zlY1BipNZUbQSZY7ya7Z+z6eC6WK4HmkdWOhdgCXFS7DIuxDlzjK4bOOnlshCSr2RXpwYPIVXrryMUHxkWiWRmdicFt3FwPbr3CWnOWvONsMTmfmMsGyx2awoK3Nh8WIfVqwoN0qzIze6GEY8WP0Ybiu9DdXOKqMku0wTENIaVEhYVbJSr8QoYxaEdCsU24vhsXvhtXn0RZZjfkkFhGH1mDvCXeiL9OgyIjPQAUFdKLe9+VvPI3BlyLiVPxwOG2prPbjnnkb8zu9sVoFh6tPUMy2XAsLaklvwYOWDWOxZZJRkl+kCwkQ89iIsLFqEOk896tw1+uKxe96Zl/pW32Ec7T+MzmB7zvUREc0FBoT88LWnv4H+S/m74Nv69VXYvv3DKClxZm3WTC4FhAb3IjxV8zRuLF5llGRXwQxSnI1QPICzg6ewo2Mbvtf07/ji6S/ir0/+Df75wr/i3y59U+/+6FKBwecsNf4FERHNViKRRH9/OOfm/2eLnqKfQ13aDAiTiCdj6ApewWV/Cy4OnkXz0AUMRHIgYhIRFQDpUfB67Vi0yJfVNTdiqj6WQZ+5oMRRqgfT5wp2MRDROOxiyA+9X9mFRN/st8Gfby6XDQsW+LBlSz0ee2yJUZodPdEUXu9NYW8O9NTcVn4X7im/Gw3uBqMkuxgQiGgcm8MICMwIOUlmNja4gc1DffAmcmv1vamw263w+ZyorvaguNhplGZHSyiJ7b3A4RwY6/mJxk9jdfEaPVA+FzAgENE4NsdIK0K2RpbTtXmswAPVwB1lFhRxHYRZORNIYkdvCqf92X8e/8OS38AS71KVy3PjNeUYBCIaR5825Ei/LF3Na4M6ywRuKrbAxWwwa4EEELr+Hn9zSgJBvatRjz/IlXAg5jUgyC8+skIU39VEOU2FgylsjErzTBoLGt3A4zUW1DllDRceS2dDMnBvFBiMZfd5dKpgcGfFvSix59YOw/MbECxWVLprYbfYjRIiykVJFQ6SXOc/p0gVVqbOr5Z6gUp2/2SEvMX7VUAYihkFWWC3OFDtqsPNvnUothcZpblhXgOCbKtc7a7Wex8QUQ6TFgTmg5ziU4fNDSXAPRUMBpkiwSCYUEHBuD3fZBfievcCfKjuGbiNlX1zybwGBIcKBjeXr8+ZEZpEdA0MCDnBpY7SG0qBD9QBd6tw4Ga3QsacCyXRm4XWA4uqeuvcjXi4+nF8suETqHfV6RPoXDOvj8hmsWFp8aKcTEpERLlG9st6tNqC+1UwWFFkQYldVS3MBxnTHgb887x6voSDjaWb8WT1U9hcugnVrho9Ni8Xu4zmdZqj/Cj5+FbTd3G8/ygC3E6ZKGdJT6DDnXtnNYVIxhasKgYqJREY5DMZlHhLKeDTmxmNlFPmfLU1iTOqGpqLlRRvKl6jpyyOvJLvsqrby4qWo8HVkDPbOk9mXgNC2r7eQ3it/RVcCbYZJUSUayQg2F3qcMaKac6tLQEeqrRgkYdP9nz6UlMSl4LGjQx7f90HcXfFvSoO5O9rmpXTg8XeBXp7ZSLKXTLNMZngQIS55lRH4WUeoIRjt+eNnBfHkqk5HYgrwSCfw4HISkCo89RwoCJRjtMBIT5yEJ3/dkZzkOqjziXdCxaUjepeoLnXG1MhYY7e1zJ10WqxGbfyFzsYiWhSerEkhoM5IwMOlxQBHOoxv+RtfSowsoriXKh01aDI5jNu5a+svS0X+Zagyl1j3CKiXCQBIR5hSpgrdhUQtpRa9BoHNH9kgaS3+udugaR7yu/BiqLlxq38lbWAsLz4BtR76oxbRJSrZFVFmhvSqSB7K9g4EnTezeUCSSV2HzzW/O9Gz1pAqPPUYl3ZOiwuzu5e4EQ0BeqMKwsTngqaDE5c4h2ZykjzJ5JM4VwwNSdTG0WxvVTvrVAIS2FnLSDIIMXVpTdiZckqo4SIcpI6kCZkNJcOCUYZzYrbmlLhIIUtFSOLIdH8CCVSuKTCwe4+IJrh5gOZseCxFeHW0ttQ7ig3SvNb1gKCKHeWodpVqVdYJKLclYgBSRnQxYSQEeVOYFOpBWuLrdyRcR71q/fxW4PA6TlYHEk2IVzqXY67K+5GpbPSKM1vWQ0IQtZDqPHk5jrURPSu9JRHmr0KhwU3qnBA80feu4Nx4GzAKMgwl9WNO8q3wGPz6taEQpD1d+jasjX4yOJn4HOWGiVElIukBUEOshyLMDvSXirTGovZcDqvkkghot7DgTnae8FpdWB10SoVFJxGSf7LekCQpFXjqsGDdQ8WTOoiKlQpmR/GfDArjR5gZTGPdfPtcjiFE/65mbfgtnqwQO+7UFiyHxAsFhTZi7CqZAUcBZS8iAqRjEV4ZzwCTdtaH/BgFbCqyCigeXF0OIWtPdAbM2VahaMKt5ffhUerHi24k9yc6ASzW20odZTiprK1cFldRikR5ZyUMRaBezTMiExrXO6VhZHYgjCfWkMpXNArJ2b+ea9z12Fz2WbUu+oKYmrjaDkREITb5sLdNXfhLnUpdxbGFBGiQiRDEJLJFBdQmqZlKhw0umUqHMPBfJAIK5cLwRQuh2T9A12cUWWOCizxLEWtszBXBc6ZgCD7Yt9YsgKP1j+KGi7BTJTTUrIKHWc1TMumUhUQ2EA6f9Sbszeawt4BFRDCRlkGOS0uLC9aqS+FOlU/ZwJCWrGjCLUqIPgcJbBacu7hEZGiWxHY1TAlchSrcgINbhlvxdaD+aDfn+r6rcEULvhHllXOtEbPQqzzrcdCzwKjpPDkZA38ocUfwgN1D6DEwamPRLlKNnKKRaQVYeRC48kBtkyFg08tsKBeBQSaeyPhIIVhFQoODIysfZBpsp3z/ZX3Y61vjXqNC/dENid/M3nCN1dswiZ1IaLclpyjeeWFoMQBPFMP1KqQwA0b54/s0vhsexKBTC+XaJBZC9XOWuNW4bKo5J+T0T+RSqAt2I493Xuws2uHUUpEOUedGNtVBWi1WwpuFPdslKlwsKkMeKjSAqd6WvjczI+mYAo/7EihO5oyBiZm7nn32rz4VONnUe2qgc/m02PnClnOBgQRTUbRHGjF6x1v4Gj/YaOUiHKNDBeSi81hgZWj9PU6B1sqLKh1ATWSDmjOdUZSOBdI4fgw1LVRmCF6ISTPItxedhvWl2zQgxLNsLBfTneeOK1ONHoa9PTHmys26NtElHtkPIJ0NaSXYzazCmcKq33AOp+F4WAeXQym8GZ/5sOBqHXV4e6Ke7GhZCNs6sMsq/7m/OgKr92DFb4b8FDdQ1hXvh4ljhLTvDhE+SaZSOmtoeXabOSotNwL3FFmwVJ1TfNDAul5aTkYklYEozCD6l0N2FS6GTcVr9Yz68zUVZTTXQyjycPsjfbh1fbXcKz/KIZig8Y9RJRrZFq4w6WivEm2MpYzLZnK+NEGC5Z4eQIzH6TmkiEGPdEUnm1P4WJwpDyTimzFeLjqUdxTea8pT0xzvgUhTVJblasSTzY8rneA9Ng8ev9tIspBusvh3SmQ+XEaMn1SZTjVUbRChYOn6qQpeqSc5lZSvaGi6tIXS+HF7iSuhDP7BpOZdEW2Imwo3YxlRctNGQ5E3rQgpMkbI5aMoTV4GXt79mFv95vGPUSUi+zukYGLhdgyW6LOUW4uBR6rsuigIGdcnK0w9wZVMDgwmMIbPTKYPYWRdZAy87yrdyvq3QvxTP2HUO+q1yeiZl20L+8CQprMcDg+cALfb/4BhtndQJS71HHbpipSmQZZSDMcFnuBO8uBFV4LSh0MBfOlKZTCzr6RzZeGM7wGh9dWhLUlt+Cu8i2oddYW/DTG68nbgCCGYkN6GmQoHsTrXdvRHryCeDJm3EtEuUKfVMsZtlxUSJCwkK+kpWBjibqUjUxjLOa0znlxeEhCQQodEaBdXUIZXD65ylmDlUU3qstyVLlqUeOsHhmQaNKuhbS8DghpsqjSkYFjOD14Rl1Ooi/SZ9xDRDlFHW+tNsDuUAffPNzfRgKBrHGwsdSChR4Gg7kmtZNUUG3hJLb1pnDGb8n4roxFdp+evrilbIt6fWu5B9AoBREQ0q6EOnB84DjOD51HZ7gT/dE+JGWCNhHlDlWv2mRMggQEIzDkcr99kXp8N3hlS3rZoAe4sciCClkQivlgzoQSKfTGgO4IoLIBmkJJnPPLvgqZedKlZWCp9waUOcpQ4axUoW81lnmXGvdSWkEFhLTLwTYc6T+GU4Mn0RJoUSFhDrbyIqJZe3f1RbmRWwMZpSvBZweWqVDweI0FpepzDkCcexIOmkMpHBoCTg8DgQwevmUFRI+tCGX2UjxR+zSWuJeo4Oc27qWxCjIgCOl2kJkO37z4bYQTQd2SEE/GEUlG1X3cXYYoZ6g61yYDGHUFnC4b+UT/f57qZGlYtqv/udRFPq9T9cb6EmB1EQchzhWpfqSNN6b+F1UX+bxFhYP9A8Apv/6SWZGWAgkFLqtLz0aQ7oRlRSuwoWQDFroWqNdbveloUgUbENK/lgQF+WwwOogz/vPY170XF4fP6/uIKPdIq4Jdnb7Ltc4J81A3yzhDWctgWRHwYIVFnWGqQlUmQUE/BLYczIl4UroSUjihwsCevpGtmeXQLcfsTFRM0lqw0LME91bcg+XekfUM5LVUcZSv6xQUbEAYS4JCJBFFKBFEVF2n1Ie0JhzuP4aOcCda/Jfgjw3rciLKMnXcfufQLZ+ri5zsWa0jwSFdPhPF6vtUqjCwUoWBJR6LXstAxhPIxAqH+t7FNgkMM/zmNI4cUWX9mqEocGo4iZZACp1hqOOtvK4WpFQ6i6ovCqqLtCDMhMPi1EFgiXcpGtz1qHfW6XKLerM4rE4U2bx6Lx+JBjR1pgkIY8mvLd0OfdEBFRpC8MeHdStDT6QP3ZFedduP4fgQovGIevNKt4R66+bwU5VSjy+JhP5DlN9rJOioizxm9Ufosnn4xzGP5PmPJiLqtZAO1Dz7E1PvF7slBVu6Is4R77Qo6BvqWZXKRT50mfqfui0l0k0g4wfk4lA1v3QZSCiQgYUy4LDcoc4sVXmJupYwkEu9B/l+ghJJjPwGQfW2D8aBQNyK3oi6RB0Iq9uDKhT44ymE1f3xpLxmI6+pXFIWOW4pcq0uqnbSx2n5GukmcKtK3mVzq9fLoa5dejVdWaug2FasAl+lel3L1ec+eFW53EezZ9qAMJY8DdKiIMFgKOZXn4fVmziMWDKuxyzk9mwI+UOS/6uQoD4Z6dWTYvk8pf741AGf6XleyfspkYrl+PtmctLkLgftnCWPTV2uOngZj1ceu7QG6GsVDuzqF3Gr6yIVEiQsuFU4ML40x4z8HeezuD7mWPR4ArlEVBAYViEhELchKYHgGlIqEOhXVIKBfmXTF3kvWlXgc6nX06HDgowdcFmcKuSVqtfTBa+1SIVB9QJTRjEgEBER0TgqTxMRERFdjQGBiIiIxmFAICIionEYEIiIiGgcBgQiIiIahwGBiIiIxmFAICIionEYEIiIiGgcBgQiIiIahwGBiIiIxmFAICIionEYEIiIiGgcBgQiIiIahwGBiIiIxmFAICIionEYEIiIiGgcBgQiIiIahwGBiIiIxmFAICIionEYEIiIiGgcBgQiIiIahwGBiIiIxmFAICIionEYEIiIiGgcBgQiIiIahwGBiIiIxmFAICIionEYEIiIiGgcBgQiIiIahwGBiIiIxmFAICIionEYEIiIiGgcBgQiIiIahwGBiIiIxmFAICIionEYEIiIiGgcBgQiIiIahwGBiIiIxmFAICIiojGA/x/RLkZY5LObiAAAAABJRU5ErkJggg==;" parent="kSNvJyyvDM7-cWvT9wNF-107" vertex="1">
          <mxGeometry y="4.8700000000000045" width="49.96" height="45.25" as="geometry" />
        </mxCell>
        <mxCell id="kSNvJyyvDM7-cWvT9wNF-105" value="" style="group" parent="kSNvJyyvDM7-cWvT9wNF-107" vertex="1" connectable="0">
          <mxGeometry x="49.95999999999998" width="124.99" height="55" as="geometry" />
        </mxCell>
        <mxCell id="kSNvJyyvDM7-cWvT9wNF-94" value="" style="rounded=1;whiteSpace=wrap;html=1;strokeColor=none;fillColor=#dae8fc;" parent="kSNvJyyvDM7-cWvT9wNF-105" vertex="1">
          <mxGeometry width="124.99" height="55" as="geometry" />
        </mxCell>
        <mxCell id="kSNvJyyvDM7-cWvT9wNF-95" value="" style="sketch=0;outlineConnect=0;fontColor=#232F3E;gradientColor=none;fillColor=#7AA116;strokeColor=none;dashed=0;verticalLabelPosition=bottom;verticalAlign=top;align=center;html=1;fontSize=12;fontStyle=0;aspect=fixed;pointerEvents=1;shape=mxgraph.aws4.iot_analytics_pipeline;" parent="kSNvJyyvDM7-cWvT9wNF-105" vertex="1">
          <mxGeometry x="6.350000000000009" y="29.333333333333332" width="32.34916666666667" height="17.416666666666668" as="geometry" />
        </mxCell>
        <mxCell id="kSNvJyyvDM7-cWvT9wNF-96" value="" style="sketch=0;outlineConnect=0;fontColor=#232F3E;gradientColor=none;fillColor=#7AA116;strokeColor=none;dashed=0;verticalLabelPosition=bottom;verticalAlign=top;align=center;html=1;fontSize=12;fontStyle=0;aspect=fixed;pointerEvents=1;shape=mxgraph.aws4.iot_analytics_pipeline;" parent="kSNvJyyvDM7-cWvT9wNF-105" vertex="1">
          <mxGeometry x="44.71000000000002" y="29.333333333333332" width="32.34916666666667" height="17.416666666666668" as="geometry" />
        </mxCell>
        <mxCell id="kSNvJyyvDM7-cWvT9wNF-97" value="" style="sketch=0;outlineConnect=0;fontColor=#232F3E;gradientColor=none;fillColor=#7AA116;strokeColor=none;dashed=0;verticalLabelPosition=bottom;verticalAlign=top;align=center;html=1;fontSize=12;fontStyle=0;aspect=fixed;pointerEvents=1;shape=mxgraph.aws4.iot_analytics_pipeline;" parent="kSNvJyyvDM7-cWvT9wNF-105" vertex="1">
          <mxGeometry x="83.35000000000001" y="29.333333333333332" width="32.34916666666667" height="17.416666666666668" as="geometry" />
        </mxCell>
        <mxCell id="kSNvJyyvDM7-cWvT9wNF-102" value="" style="sketch=0;outlineConnect=0;fontColor=#232F3E;gradientColor=none;fillColor=#1010A1;strokeColor=none;dashed=0;verticalLabelPosition=bottom;verticalAlign=top;align=center;html=1;fontSize=12;fontStyle=0;aspect=fixed;pointerEvents=1;shape=mxgraph.aws4.iot_analytics_pipeline;" parent="kSNvJyyvDM7-cWvT9wNF-105" vertex="1">
          <mxGeometry x="6.350000000000023" y="7.333333333333333" width="32.34916666666667" height="17.416666666666668" as="geometry" />
        </mxCell>
        <mxCell id="kSNvJyyvDM7-cWvT9wNF-103" value="" style="sketch=0;outlineConnect=0;fontColor=#232F3E;gradientColor=none;fillColor=#1010A1;strokeColor=none;dashed=0;verticalLabelPosition=bottom;verticalAlign=top;align=center;html=1;fontSize=12;fontStyle=0;aspect=fixed;pointerEvents=1;shape=mxgraph.aws4.iot_analytics_pipeline;" parent="kSNvJyyvDM7-cWvT9wNF-105" vertex="1">
          <mxGeometry x="44.710000000000036" y="7.333333333333333" width="32.34916666666667" height="17.416666666666668" as="geometry" />
        </mxCell>
        <mxCell id="kSNvJyyvDM7-cWvT9wNF-104" value="" style="sketch=0;outlineConnect=0;fontColor=#232F3E;gradientColor=none;fillColor=#1010A1;strokeColor=none;dashed=0;verticalLabelPosition=bottom;verticalAlign=top;align=center;html=1;fontSize=12;fontStyle=0;aspect=fixed;pointerEvents=1;shape=mxgraph.aws4.iot_analytics_pipeline;" parent="kSNvJyyvDM7-cWvT9wNF-105" vertex="1">
          <mxGeometry x="83.35000000000001" y="7.333333333333333" width="32.34916666666667" height="17.416666666666668" as="geometry" />
        </mxCell>
        <mxCell id="kSNvJyyvDM7-cWvT9wNF-112" value="" style="endArrow=classic;html=1;rounded=0;fontSize=12;startSize=8;endSize=8;curved=1;strokeColor=#122AFF;" parent="1" source="kSNvJyyvDM7-cWvT9wNF-104" edge="1">
          <mxGeometry width="50" height="50" relative="1" as="geometry">
            <mxPoint x="5" y="-138.85" as="sourcePoint" />
            <mxPoint x="78" y="-148" as="targetPoint" />
            <Array as="points">
              <mxPoint x="-3" y="-128" />
            </Array>
          </mxGeometry>
        </mxCell>
        <mxCell id="kSNvJyyvDM7-cWvT9wNF-113" value="" style="endArrow=classic;html=1;rounded=0;fontSize=12;startSize=8;endSize=8;curved=1;strokeColor=#15940C;" parent="1" source="kSNvJyyvDM7-cWvT9wNF-97" edge="1">
          <mxGeometry width="50" height="50" relative="1" as="geometry">
            <mxPoint x="-29" y="-66" as="sourcePoint" />
            <mxPoint x="77" y="-17" as="targetPoint" />
            <Array as="points">
              <mxPoint x="11" y="-98" />
            </Array>
          </mxGeometry>
        </mxCell>
      </root>
    </mxGraphModel>
  </diagram>
</mxfile>
